<?xml version="1.0" encoding="utf-8"?>
<!-- Generator: Adobe Illustrator 27.5.0, SVG Export Plug-In . SVG Version: 6.00 Build 0)  -->
<svg version="1.1" xmlns="http://www.w3.org/2000/svg" xmlns:xlink="http://www.w3.org/1999/xlink" x="0px" y="0px"
	 viewBox="0 0 500 500" style="enable-background:new 0 0 500 500;" xml:space="preserve">
<g id="Floor">
	<ellipse id="Floor_4_" style="fill:#F0F0F0;" cx="245.798" cy="350.744" rx="228.286" ry="126.398"/>
</g>
<g id="Shadows">
	<ellipse id="Shadow" style="fill:#E0E0E0;" cx="266.079" cy="383.863" rx="76.366" ry="42.282"/>
	<ellipse id="Shadow_4_" style="fill:#E0E0E0;" cx="403.424" cy="358.386" rx="38.419" ry="21.272"/>
	<ellipse id="Shadow_13_" style="fill:#E0E0E0;" cx="104.344" cy="365.866" rx="72.734" ry="40.272"/>
</g>
<g id="Plants">
	<g id="Pot">
		<g id="XMLID_2700_">
			<g id="XMLID_3090_">
				<g id="XMLID_3091_">
					<g id="XMLID_3148_">
						<path id="XMLID_3149_" style="fill:#37474F;" d="M384.072,363.194c-10.289-10.498-16.332-53.223-6.297-61.549h51.06
							c10.033,8.324,3.996,51.034-6.287,61.539c-0.088,0.098-0.189,0.192-0.282,0.289c-0.118,0.117-0.235,0.234-0.354,0.346
							c-0.29,0.281-0.599,0.557-0.93,0.827c-0.081,0.067-0.164,0.128-0.246,0.193c-0.252,0.198-0.501,0.396-0.777,0.587
							c-0.439,0.311-0.881,0.601-1.33,0.85c-8.463,4.886-22.185,4.886-30.647,0l0,0l-0.001,0c-0.452-0.251-0.898-0.543-1.339-0.856
							c-0.256-0.178-0.487-0.363-0.723-0.547c-0.101-0.08-0.203-0.155-0.304-0.238c-0.319-0.261-0.617-0.527-0.897-0.798
							c-0.138-0.129-0.273-0.265-0.409-0.4C384.231,363.355,384.145,363.276,384.072,363.194z"/>
					</g>
					<g id="XMLID_3144_">
						<path id="XMLID_3145_" style="fill:#455A64;" d="M424.401,298.29c11.65,6.726,11.65,17.632,0,24.358
							c-11.65,6.726-30.539,6.726-42.189,0c-11.65-6.726-11.65-17.632,0-24.358C393.862,291.564,412.75,291.564,424.401,298.29z"/>
					</g>
					<g id="XMLID_3133_">
						<path id="XMLID_3134_" style="fill:#263238;" d="M418.797,301.526c8.556,4.94,8.555,12.948,0,17.888
							c-8.556,4.94-22.427,4.94-30.983,0c-8.556-4.94-8.556-12.948,0-17.888C396.37,296.586,410.242,296.586,418.797,301.526z"/>
					</g>
					<g id="XMLID_3101_">
						<path id="XMLID_3104_" style="fill:#F5F5F5;" d="M387.815,310.015c8.555-4.94,22.427-4.94,30.983,0
							c2.377,1.372,4.068,2.985,5.125,4.699c-1.057,1.714-2.748,3.327-5.125,4.699c-8.556,4.94-22.427,4.94-30.983,0
							c-2.377-1.372-4.069-2.985-5.125-4.699C383.746,313,385.438,311.388,387.815,310.015z"/>
					</g>
				</g>
			</g>
		</g>
		<g id="Plants_20_">
			<g id="XMLID_3250_">
				<g id="XMLID_3255_">
					<path id="XMLID_3256_" style="fill:#27DEBF;" d="M408.284,296.518l-7.331-5.212c0,0-5.995-31.464-0.817-45.034
						c5.178-13.57,14.724-13.487,19.276-9.856c4.552,3.631,2.058,14.987,0.193,21.561c-2.244,7.914-9.392,43.355-4.354,55.923
						L408.284,296.518z"/>
				</g>
				<g id="XMLID_3253_" style="opacity:0.2;">
					<path id="XMLID_3254_" d="M408.284,296.518l-7.331-5.212c0,0-5.995-31.464-0.817-45.034
						c5.178-13.57,14.724-13.487,19.276-9.856c4.552,3.631,2.058,14.987,0.193,21.561c-2.244,7.914-9.392,43.355-4.354,55.923
						L408.284,296.518z"/>
				</g>
				<g id="XMLID_3251_">
					<path id="XMLID_3252_" style="fill:#FFFFFF;" d="M406.819,292.861c0.273-0.11,0.434-0.403,0.369-0.699
						c-5.942-26.909,6.321-51.927,6.446-52.176c0.151-0.303,0.028-0.67-0.274-0.821c-0.302-0.152-0.669-0.027-0.82,0.273
						c-0.126,0.254-12.585,25.644-6.546,52.986c0.073,0.33,0.399,0.539,0.729,0.466
						C406.756,292.884,406.789,292.873,406.819,292.861z"/>
				</g>
			</g>
			<g id="XMLID_3225_">
				<g id="XMLID_3248_">
					<path id="XMLID_3249_" style="fill:#27DEBF;" d="M405.139,288.333c0,0-0.816-2.478,2.824-3.105
						c3.64-0.627,5.038-3.657,5.379-8.735c0.342-5.079,1.875-8.724,6.441-9.474c4.566-0.75,8.242,1.549,11.209-0.737
						c2.967-2.286,10.633-7.811,17.02-5.296c6.387,2.516,4.293,7.968,0.972,11.506c-3.321,3.537-4.285,4.728-1.743,10.479
						c2.542,5.751,0.691,11.123-5.185,12.467c-5.876,1.344-9.159,0.656-9.251,7.104c-0.082,5.756-1.253,11.15-7.268,13.33
						c-4.732,1.715-9.895,2.224-14.87,1.466c-1.585-0.241-3.398-0.725-4.564-1.899c-1.221-1.229-0.964-2.595-0.964-4.2
						c0-3.449,0-6.898,0-10.346C405.139,296.706,405.139,292.52,405.139,288.333z"/>
				</g>
				<g id="XMLID_529_" style="opacity:0.1;">
					<path id="XMLID_530_" d="M405.139,288.333c0,0-0.816-2.478,2.824-3.105c3.64-0.627,5.038-3.657,5.379-8.735
						c0.342-5.079,1.875-8.724,6.441-9.474c4.566-0.75,8.242,1.549,11.209-0.737c2.967-2.286,10.633-7.811,17.02-5.296
						c6.387,2.516,4.293,7.968,0.972,11.506c-3.321,3.537-4.285,4.728-1.743,10.479c2.542,5.751,0.691,11.123-5.185,12.467
						c-5.876,1.344-9.159,0.656-9.251,7.104c-0.082,5.756-1.253,11.15-7.268,13.33c-4.732,1.715-9.895,2.224-14.87,1.466
						c-1.585-0.241-3.398-0.725-4.564-1.899c-1.221-1.229-0.964-2.595-0.964-4.2c0-3.449,0-6.898,0-10.346
						C405.139,296.706,405.139,292.52,405.139,288.333z"/>
				</g>
				<g id="XMLID_3246_">
					<path id="XMLID_3247_" style="fill:#FFFFFF;" d="M405.138,314.889c0.211,0,0.407-0.133,0.478-0.344
						c10.695-31.756,34.9-44.582,35.143-44.708c0.247-0.128,0.345-0.433,0.216-0.681c-0.127-0.247-0.431-0.346-0.68-0.217
						c-0.247,0.127-24.805,13.122-35.636,45.284c-0.089,0.264,0.053,0.55,0.317,0.639
						C405.031,314.88,405.085,314.889,405.138,314.889z"/>
				</g>
				<g id="XMLID_3231_">
					<path id="XMLID_3245_" style="fill:#FFFFFF;" d="M420.48,287.207c0.038,0,0.075-0.004,0.113-0.013
						c6.983-1.596,18.159-0.733,18.271-0.726c0.281,0.022,0.521-0.184,0.543-0.463c0.022-0.278-0.185-0.522-0.464-0.543
						c-0.464-0.038-11.443-0.883-18.575,0.748c-0.272,0.062-0.442,0.332-0.38,0.604C420.042,287.048,420.25,287.207,420.48,287.207z
						"/>
				</g>
				<g id="XMLID_3229_">
					<path id="XMLID_3230_" style="fill:#FFFFFF;" d="M414.788,302.47c3.191,0,6.577-0.208,6.79-0.222
						c0.278-0.018,0.49-0.257,0.472-0.536c-0.017-0.278-0.255-0.503-0.536-0.473c-0.078,0.004-7.88,0.484-10.923,0.005
						c-0.278-0.04-0.534,0.145-0.577,0.42c-0.044,0.275,0.144,0.535,0.42,0.578C411.514,302.413,413.125,302.47,414.788,302.47z"/>
				</g>
				<g id="XMLID_3226_">
					<path id="XMLID_3227_" style="fill:#FFFFFF;" d="M423.759,283.476c0.009,0,0.019,0,0.029-0.001
						c0.278-0.015,0.492-0.253,0.476-0.531c-0.31-5.601-2.168-10.431-2.247-10.635c-0.101-0.259-0.395-0.39-0.653-0.287
						c-0.26,0.101-0.389,0.393-0.288,0.654c0.019,0.048,1.879,4.888,2.181,10.323C423.27,283.268,423.493,283.476,423.759,283.476z"
						/>
				</g>
			</g>
			<g id="XMLID_270_">
				<path id="XMLID_281_" style="fill:#27DEBF;" d="M404.947,318.33c0,0-6.612,2.474-15.513,0.568
					c-8.901-1.907-11.056-7.346-11.056-7.346s6.337-6.594,11.952-6.964c0,0-8.711-1.468-16.862,0.357c0,0-5.152-1.898-4.176-10.502
					c0,0,4.849-3.534,16.012-2.149c0,0-5.594-3.948-15.399-5.114c-0.772,0.008,0.272-11.201,1.207-16.197
					c0.935-4.996,2.79-4.224,6.8-3.793c4.01,0.431,16.625,4.595,18.13,7.472c1.505,2.877,0.025,10.16,0.025,10.16
					s3.669-3.029,4.479-6.684c0,0,4.128,0.169,7.664,3.168c3.535,2.999,2.508,4.889,1.362,7.861
					c-1.226,3.178-2.353,5.167-4.636,8.378c0,0,3.761-1.353,7.33-10.311c0,0,3.698,6.853,4.349,11.768
					C417.266,303.918,412.608,314.324,404.947,318.33z"/>
				<g id="XMLID_272_">
					<path id="XMLID_273_" style="fill:#FFFFFF;" d="M404.765,318.802c-0.175-0.068-0.306-0.231-0.322-0.431
						c-1.346-16.674-20.212-42.721-28.551-47.95c-0.236-0.148-0.308-0.461-0.16-0.698c0.148-0.237,0.462-0.304,0.697-0.16
						c8.476,5.316,27.654,31.786,29.02,48.726c0.023,0.279-0.185,0.522-0.463,0.544C404.909,318.84,404.834,318.828,404.765,318.802
						z"/>
				</g>
			</g>
		</g>
	</g>
</g>
<g id="Chair">
	<g id="XMLID_1_">
		<g id="XMLID_11_">
			<g id="XMLID_24_">
				<path id="XMLID_25_" style="fill:#455A64;" d="M104.98,401.507c-0.845,0-1.529-0.684-1.529-1.529v-98.303
					c0-0.845,0.684-1.529,1.529-1.529c0.845,0,1.529,0.684,1.529,1.529v98.303C106.509,400.823,105.825,401.507,104.98,401.507z"/>
			</g>
			<g id="XMLID_22_">
				<path id="XMLID_23_" style="fill:#455A64;" d="M165.801,365.726c-0.609,0-1.184-0.366-1.422-0.968l-30.144-76.298
					c-0.311-0.785,0.075-1.674,0.86-1.983c0.782-0.314,1.672,0.073,1.983,0.86l30.144,76.297c0.311,0.786-0.075,1.674-0.86,1.983
					C166.179,365.692,165.988,365.726,165.801,365.726z"/>
			</g>
			<g id="XMLID_20_">
				<path id="XMLID_21_" style="fill:#455A64;" d="M162.18,356.562c-0.406,0-0.811-0.161-1.111-0.479l-56.091-59.355l-55.989,59.104
					c-0.581,0.615-1.548,0.641-2.161,0.058c-0.614-0.581-0.639-1.548-0.058-2.161l57.1-60.278c0.288-0.305,0.69-0.478,1.109-0.478
					h0.002c0.42,0,0.821,0.173,1.109,0.479l57.2,60.53c0.581,0.614,0.553,1.581-0.061,2.161
					C162.934,356.423,162.558,356.562,162.18,356.562z"/>
			</g>
			<g id="XMLID_18_">
				<path id="XMLID_19_" style="fill:#455A64;" d="M44.16,365.726c-0.187,0-0.378-0.034-0.562-0.108
					c-0.785-0.309-1.171-1.197-0.86-1.983l30.144-76.297c0.311-0.787,1.199-1.174,1.983-0.86c0.785,0.309,1.171,1.198,0.86,1.983
					l-30.144,76.298C45.344,365.36,44.769,365.726,44.16,365.726z"/>
			</g>
			<g id="XMLID_16_">
				<path id="XMLID_17_" style="fill:#27DEBF;" d="M163.723,354.205l3.985,10.517c0.024,0.09,0.036,0.179,0.036,0.269
					c0.006,0.06,0.006,0.125,0,0.191c-0.036,0.215-0.308,0.49-0.6,0.663c-0.669,0.389-1.757,0.389-2.426,0
					c-0.245-0.143-0.4-0.317-0.472-0.496c0-0.006,0-0.012-0.006-0.018l-0.03-0.143l-3.695-9.86L163.723,354.205z"/>
			</g>
			<g id="XMLID_14_">
				<path id="XMLID_15_" style="fill:#27DEBF;" d="M46.238,354.205l-3.985,10.517c-0.024,0.09-0.036,0.179-0.036,0.269
					c-0.006,0.06-0.006,0.125,0,0.191c0.036,0.215,0.308,0.49,0.601,0.663c0.669,0.389,1.756,0.389,2.426,0
					c0.245-0.143,0.4-0.317,0.472-0.496c0-0.006,0-0.012,0.006-0.018l0.03-0.143l3.695-9.86L46.238,354.205z"/>
			</g>
			<g id="XMLID_12_">
				<path id="XMLID_13_" style="fill:#27DEBF;" d="M106.743,392.367l0,8.7c0,0.26-0.172,0.521-0.516,0.719
					c-0.688,0.398-1.805,0.398-2.493,0c-0.344-0.198-0.516-0.459-0.516-0.719v-8.7C104.393,391.778,105.568,391.778,106.743,392.367
					z"/>
			</g>
		</g>
		<g id="XMLID_2_">
			<path id="XMLID_10_" style="fill:#263238;" d="M167.664,287.339c-0.005-2.509-2.202-5.185-6.853-8.202
				c-8.594-5.575-27.792-16.765-39.815-23.428c-0.025-0.09-0.101-0.098-0.101-0.098c-9.253-5.615-17.882-32.355-24.286-52.677
				c-2.183-6.925-4.856-10.846-8.025-12.686c-0.752-0.437-3.524-1.964-4.144-2.336c-6.283-3.765-14.53,0.758-24.803,6.38
				c-9.463,5.179-16.856,11.81-18.343,29.402c-0.905,10.712-0.044,31.182,2.132,46.695c-0.001-0.002-0.006-0.014-0.006-0.014
				c3.15,25.918,7.017,25.963,12.63,30.299c9.661,7.464,31.42,17.957,40.588,21.563c16.633,6.543,30.225-3.545,40.355-8.548
				c10.13-5.003,22.582-12.807,26.846-15.904c2.536-1.842,3.847-3.703,3.821-5.665C167.649,291.341,167.666,288.151,167.664,287.339
				z"/>
			<g id="XMLID_8_">
				<path id="XMLID_9_" style="fill:#37474F;" d="M136.993,308.867c10.13-5.003,22.582-12.808,26.846-15.904
					c5.764-4.185,5.233-8.468-3.027-13.827c-6.157-3.994-5.838-4.346-52.236-29.85c0,0-59.143,34.903-56.599,41.348
					c2.544,6.445,33.129,22.244,44.661,26.78C113.271,323.958,126.863,313.871,136.993,308.867z"/>
			</g>
			<path id="XMLID_7_" style="fill:#455A64;" d="M88.216,190.036c-6.225-3.267-14.316,1.175-24.324,6.658
				c-6.411,3.514-11.873,7.678-15.192,15.47l-4.226-2.443c3.319-7.761,8.771-11.925,15.161-15.429
				c10.275-5.627,18.521-10.142,24.808-6.38C84.99,188.232,87.175,189.449,88.216,190.036z"/>
			<g id="XMLID_5_">
				<path id="XMLID_6_" style="fill:#37474F;" d="M63.889,196.697c15.375-8.415,26.218-14.395,32.72,6.237
					c6.404,20.322,15.034,47.061,24.286,52.677c0,0-2.996-2.537-26.008,14.852c-7.322,5.533-16.207,10.066-22.044,13.545
					c-11.437,6.816-18.369,9.546-19.465,8.637c-6.045-5.012-9.319-48.952-7.831-66.545
					C47.034,208.507,54.426,201.877,63.889,196.697z"/>
			</g>
			<g id="XMLID_3_" style="opacity:0.5;">
				<path id="XMLID_4_" style="fill:#455A64;" d="M63.889,196.697c15.375-8.415,26.218-14.395,32.72,6.237
					c6.404,20.322,15.034,47.061,24.286,52.677c0,0-15.867-0.012-38.861,12.405c-23.908,12.911-27.56,25.537-28.656,24.628
					c-6.045-5.012-9.319-48.952-7.831-66.545C47.034,208.507,54.426,201.877,63.889,196.697z"/>
			</g>
		</g>
	</g>
</g>
<g id="Character">
	<g>
		<g id="Character_9_">
			<g>
				<g>
					<path id="XMLID_538_" style="fill:#FFA8A7;" d="M358.255,147.402c4.072-0.91,7.668-1.764,10.425-2.468
						c14.683-3.75,19.095-8.611,19.551-15.103c0.728-10.361-3.151-10.441-9.844-5.811c-4.938,3.416-9.042,4.671-9.042,4.671
						c1.538-2.034,2.253-2.95,2.764-4.247c1.015-2.579-0.357-4.236-1.252-4.674c-0.695-0.341-1.403,1.452-3.831,3.429
						c-3.113,2.534-5.635,3.019-8.221,6.53c-0.969,1.316-2.413,2.191-4.007,2.553c-1.457,0.325-25.433,6.892-36.657,8.815
						c-6.596-8.386-12.715-17.339-19.678-26.25c-10.732-13.735-15.833-15.66-21.857-14.562l-5.226,17.237
						c0,0,35.342,41.618,35.757,42.138c2.725,3.406,6.528,4.636,10.713,3.409C333.085,158.602,349.19,151.587,358.255,147.402z"/>
				</g>
				<path id="XMLID_535_" style="fill:#37474F;" d="M275.215,96.806c12.545,0.55,16.268,7.586,22.701,15.387
					c6.433,7.801,20.466,27.819,20.466,27.819l34.232-7.167c0,0-1.419,9.835,3.016,15.756c0,0-18.16,9.155-29.156,13.372
					c-13.904,5.331-14.814,4.116-17.328,1.811c-2.394-2.195-33.018-36.809-33.018-36.809L275.215,96.806z"/>
			</g>
			<path id="XMLID_268_" style="fill:#FFA8A7;" d="M133.718,120.004c3.256-9.863,6.839-10.273,11.275-3.45
				c3.274,5.034,6.595,7.751,6.595,7.751c-0.652-2.466-0.966-3.584-0.947-4.979c0.039-2.771,1.937-3.784,2.931-3.85
				c0.773-0.052,0.748,1.875,2.245,4.626c1.919,3.526,4.069,4.931,5.13,9.16c0.398,1.585,1.439,4.749,2.776,5.689
				c6.792,4.774,19.158,10.67,31.442,15.414c4.364-9.202,10.112-20.693,14.498-28.742c8.34-15.306,13.855-17.047,19.93-16.288
				l6.181,16.918c0,0-32.961,43.528-33.347,44.07c-2.53,3.553-7.703,6.005-11.738,4.349c-11.507-4.72-20.06-13.037-29.825-19.666
				c-5.805-3.941-11.281-7.008-14.785-9.613C133.916,132.355,131.677,126.184,133.718,120.004z"/>
			<path id="XMLID_559_" style="fill:#FFA8A7;" d="M221.606,310.29c0.27-13.003,4.185-22.646,4.491-26.256
				c0,0-0.958-77.336-0.958-89.881l65.945-2.689c0,0-0.921,77.53-0.921,88.277s-1.611,56.441-3.314,77.472h-0.002l-0.191,6.918
				l-14.716,4.576c0,0,0.274-2.023,0-11.84c-0.274-9.818-6.893-43.815-7.507-52.449c-0.794-11.163,0.979-15.675,0.769-23.139
				c-0.209-7.465-4.627-56.281-4.627-56.281s-8.26,47.963-10.314,64.252c-2.354,18.664-9.91,67.57-9.93,78.942
				c0.001,2.036,0.005,4.396,0.019,6.952c0.033,6.152-0.172,7.779,0.814,10.156c1.727,4.164-13.016,6.777-13.701,3.82l-1.584-12.223
				v-0.352v-0.002v0v-7.75C225.881,357.206,221.214,329.146,221.606,310.29z"/>
			<path id="XMLID_558_" style="fill:#37474F;" d="M315.454,383.433c0.429,0.896,0.304,2.576-0.204,3.641
				c-0.509,1.065-6.074,4.203-13.579,3.697c-7.506-0.506-12.661-3.53-15.522-5.425c-2.862-1.895-5.841-2.249-9.558-2.462
				c-3.717-0.213-8.598-2.066-9.413-3.804c-0.815-1.738,0.123-4.732,0.123-4.732L315.454,383.433z"/>
			<path id="XMLID_556_" style="fill:#455A64;" d="M285.163,360.006c0.195-0.042,0.393-0.083,0.594-0.123
				c0.327-0.065,0.666-0.13,0.99-0.053c0.368,0.087,0.671,0.347,0.927,0.625c0.807,0.877,1.294,1.994,1.917,3.01
				c1.573,2.567,4.876,4.692,8.484,6.631c2.452,1.318,4.854,2.34,7.386,3.479c2.582,1.161,6.01,1.871,8.031,3.233
				c2.946,1.985,3.326,6.973-0.03,8.943c-2.895,1.699-10.512,3.541-18.501,1.278c-4.352-1.233-9.183-5.883-14.895-6.33
				c-3.633-0.284-10.502-1.305-12.841-4.063c-0.864-1.223,0.29-5.102,1.238-8.45c1.034-3.654,2.269-9.38,3.48-9.058
				c0.05,0.718-0.09,0.9,0.382,1.387c0.448,0.463,1.051,0.758,1.539,1.175c0.898,0.767,1.45,1.851,2.009,2.891
				c0.242,0.45,0.529,0.93,1.032,1.118c0.612,0.23,1.07-0.156,1.606-0.403c0.673-0.31,1.46-0.366,2.17-0.155
				c-0.07-0.723-0.198-1.441-0.383-2.144c-0.06-0.227-0.125-0.468-0.054-0.692c0.073-0.226,0.271-0.386,0.465-0.523
				C282.109,360.802,283.556,360.353,285.163,360.006z"/>
			<path id="XMLID_555_" style="fill:#37474F;" d="M255.465,404.701c0.445,0.417,0.311,3.275-0.18,4.044
				c-0.526,0.825-3.544,3.4-9.002,3.79c-5.215,0.373-9.873-0.33-12.935-2.274c-3.062-1.944-4.545-4.089-4.833-7.06
				c-0.288-2.971,0.042-5.838-1.374-8.125c-1.308-2.112-3.392-4.491-3.846-5.637c-0.987-2.491-0.035-6.051-0.035-6.051
				L255.465,404.701z"/>
			<path id="XMLID_549_" style="fill:#455A64;" d="M241.19,378.762c0.037,1.155,0.24,2.207,0.602,3.308
				c0.756,2.304,1.905,4.473,3.194,6.536c0.664,1.062,1.366,2.105,2.175,3.068c1.578,1.877,3.537,3.419,5.207,5.219
				c1.67,1.801,3.089,3.984,3.22,6.403c0.222,4.091-4.218,5.481-7.636,6.089c-3.65,0.65-7.546,0.455-11.109-0.558
				c-3.964-1.126-6.824-4.197-7.482-8.152c-0.189-1.135-0.119-2.297-0.253-3.44c-0.307-2.607-1.657-4.989-3.182-7.157
				c-0.885-1.258-1.847-2.486-2.441-3.895c-1.067-2.532-0.212-5.381,0.47-7.904c0.589-2.178,1.256-4.644,2.023-4.438
				c0.009,1.129-0.004,1.246,0.806,2.012c1.025,0.968,1.069,2.425,2.152,3.281c-0.507-1.327-0.54-1.89-0.76-2.909
				c-0.066-0.306,0.017-0.924,0.231-1.157c0.287-0.314,0.777-0.509,1.256-0.671c1.609-0.544,3.277-0.922,4.968-1.13
				c1.544-0.19,3.317-0.378,4.848-0.035c0.471,0.105,0.929,0.331,1.219,0.705c0.305,0.395,0.362,0.744,0.435,1.398
				C241.206,375.987,241.155,377.676,241.19,378.762z"/>
			<path id="XMLID_1293_" style="fill:#F5F5F5;" d="M245.537,389.463c-1.523-1.141-4.937-1.156-6.803-0.956
				c-2.337,0.251-4.23,1.07-5.305,1.862c-0.476,0.351-1.143,0.29-1.562-0.123l0,0c-0.504-0.498-0.458-1.316,0.115-1.738
				c1.139-0.838,3.2-2.017,5.97-2.212c4.593-0.323,5.94,0.464,5.94,0.464S245.987,388.107,245.537,389.463z"/>
			<path id="XMLID_548_" style="fill:#F5F5F5;" d="M249.04,393.655c-1.916-1.132-5.67-0.969-7.536-0.769
				c-2.337,0.251-4.084,1.17-5.159,1.962c-0.476,0.351-1.143,0.29-1.562-0.124l0,0c-0.504-0.498-0.458-1.316,0.115-1.738
				c1.139-0.838,3.329-2.193,6.099-2.388c4.593-0.323,5.79,0.615,5.79,0.615S248.723,391.963,249.04,393.655z"/>
			<path id="XMLID_547_" style="fill:#F5F5F5;" d="M236.124,381.899c3.174-0.327,4.52,0.027,5.774,0.484
				c0.81,0.453,1.342,1.732,0.821,2.056c-1.022-0.568-2.863-0.803-5.118-0.703c-1.513,0.067-3.42,0.68-4.967,1.365
				c-0.393,0.174-0.858,0.419-1.265,0.644c-0.549,0.304-1.248,0.088-1.511-0.47l0,0c-0.223-0.473-0.057-1.037,0.398-1.312
				C231.366,383.292,233.559,382.164,236.124,381.899z"/>
			<path id="XMLID_546_" style="fill:#F5F5F5;" d="M294.681,368.121c0,0-0.522-1.394-2.682-1.796
				c-1.653-0.308-4.572,0.911-6.387,2.406c-0.743,0.612-0.646,1.774,0.196,2.239l0,0c0.501,0.277,1.116,0.204,1.548-0.172
				C288.545,369.763,291.213,367.882,294.681,368.121z"/>
			<path id="XMLID_545_" style="fill:#F5F5F5;" d="M299.804,370.99c0,0-1.068-1.67-3.179-1.638c0,0-4.316,0.124-6.988,2.614
				c-0.681,0.635-0.634,1.717,0.182,2.165v0c0.486,0.267,1.078,0.196,1.491-0.173C292.514,372.884,294.927,370.626,299.804,370.99z"
				/>
			<path id="XMLID_543_" style="fill:#F5F5F5;" d="M305.46,373.576c0,0-1.19-1.511-3.301-1.479c0,0-4.022,0.15-6.693,2.641
				c-0.681,0.635-0.634,1.716,0.182,2.165l0,0c0.485,0.267,1.078,0.196,1.491-0.173C298.343,375.655,300.583,373.211,305.46,373.576
				z"/>
			<path id="XMLID_542_" style="fill:#37474F;" d="M291.085,191.464c0,0,0.88,54.624,0.975,64.221c0.095,9.598,0,28,0,37.389
				c0,0-2.431,4.1-16.288,4.087c-13.857-0.013-15.859-3.84-15.859-3.84l-2.049-44.162l-3.821,45.869c0,0-7.957,6.174-19.37,3.714
				c-11.414-2.46-13.09-5.86-13.09-5.86l2.243-101.212L291.085,191.464z"/>
			<path id="XMLID_539_" style="fill:#263238;" d="M257.863,249.16l2.036-18.544c0,0,9.511-2.316,15.873-7.103
				c0,0-3.366,4.169-7.226,6.331c-3.86,2.162-5.713,3.057-5.713,3.057l-2.779,17.943l-0.49,34.972L257.863,249.16z"/>
			<g>
				<path id="XMLID_534_" style="fill:#455A64;" d="M222.982,200.931c9.051,6.593,50.073,13.897,69.114,0
					c0,0-0.441-53.185-1.933-81.334c-0.071-1.279-0.156-2.515-0.284-3.723c-0.043-0.398-0.1-0.796-0.142-1.194
					c-0.227-1.748-0.54-3.41-0.966-4.987c-0.071-0.27-0.156-0.54-0.241-0.81c-0.185-0.611-0.384-1.208-0.625-1.79
					c-0.128-0.313-0.256-0.625-0.398-0.924c-0.128-0.284-0.256-0.568-0.412-0.838c-0.014-0.057-0.043-0.099-0.071-0.156
					c-0.142-0.27-0.298-0.54-0.455-0.796c-0.171-0.284-0.341-0.568-0.54-0.853c-0.185-0.256-0.37-0.526-0.554-0.767
					c-0.213-0.27-0.441-0.54-0.682-0.796c-0.213-0.256-0.454-0.497-0.696-0.725c-0.156-0.156-0.327-0.313-0.497-0.469
					c-0.156-0.142-0.327-0.284-0.497-0.412c-0.213-0.185-0.455-0.355-0.682-0.526c-0.739-0.526-1.534-0.995-2.401-1.421
					c-0.228-0.113-0.469-0.227-0.711-0.327c-0.057-0.028-0.128-0.043-0.171-0.071c-0.284-0.114-0.568-0.227-0.852-0.327
					c-0.469-0.185-0.966-0.341-1.478-0.483c-0.512-0.142-1.037-0.27-1.592-0.398c-0.611-0.028-1.293-0.043-2.032-0.043
					c-0.469,0-0.98,0.014-1.506,0.028c-0.526,0.014-1.066,0.029-1.62,0.057c-7.119,0.313-17.335,1.464-25.534,2.515
					c-0.54,0.071-1.08,0.142-1.606,0.213c-0.483,0.057-0.952,0.114-1.407,0.17c-5.627,0.739-9.804,1.35-10.444,1.449
					c-0.057,0.014-0.085,0.014-0.085,0.014c-1.847,0.469-3.552,0.91-4.93,1.321c-3.766,1.108-0.966,0.156-1.79,3.794
					c-2.43,10.685,0.398,49.533,0.398,49.533L222.982,200.931z"/>
			</g>
			<g id="XMLID_419_">
				<g id="XMLID_518_">
					<path id="XMLID_528_" style="fill:#263238;" d="M239.371,67.592c0,0,2.925,13.745,4.099,16.004
						c1.173,2.258,3.598,2.9,3.598,2.9l-0.205-9.669L239.371,67.592z"/>
					<path id="XMLID_527_" style="fill:#263238;" d="M243.042,47.901c0,0-3.151-0.54-5.607,1.972
						c-2.408,2.463-1.063,10.17,1.936,17.72l5.511,0.633L243.042,47.901z"/>
					<path id="XMLID_526_" style="fill:#FFA8A7;" d="M246.534,68.229c-1.105,0.66-2.682-1.463-4.044-2.889
						c-1.363-1.426-5.811-3.374-8.031,1.302c-2.261,4.766,1.959,11.062,5.461,12.161c6.036,1.895,6.942-1.977,6.942-1.977
						l0.404,22.196c6.325,11.442,27.712,5.583,19.694-1.999l-0.017-5.638c0,0,6.436,0.412,9.104,0
						c4.439-0.686,6.264-3.759,7.611-8.564c2.163-7.717,2.984-13.949,1.149-29.127c-2.011-16.636-21.361-16.809-31.809-10.232
						C242.55,50.039,246.534,68.229,246.534,68.229z"/>
					<path id="XMLID_523_" style="fill:#263238;" d="M243.95,38.806c3.581-1.679,7.526-2.589,11.413-3.433
						c8.438-1.832,17.035-3.52,24.742-7.415c0.951-0.48,1.965-1.009,3.021-0.87c2.032,0.267,2.923,2.729,3.003,4.777
						c0.075,1.896-0.174,3.805-0.734,5.618c1.094-1.301,3.327-1.12,4.539,0.071c1.212,1.191,1.536,3.054,1.314,4.739
						c-0.497,3.778-3.392,6.924-6.813,8.602c-3.421,1.679-7.316,2.099-11.125,2.209c-5.32,0.154-10.656-0.249-15.893-1.199
						c-1.272-0.231-2.573-0.494-3.847-0.279c-1.275,0.216-2.54,1.033-2.873,2.282c-0.56,2.1-1.143,16.391-4.08,16.45
						c-0.548,0.011-2.629-3.587-3.984-4.872c-1.703-1.614-3.417-13.854-3.721-16.116c-0.025-0.185-0.126-0.329-0.235-0.481
						c-1.92-2.689,0.334-7.222,2.704-8.695C242.21,39.678,243.069,39.218,243.95,38.806z"/>
					<path style="fill:#263238;" d="M239.739,49.084c-1.442,1.692-3.982,1.895-5.674,0.453s-1.895-3.982-0.453-5.674L239.739,49.084
						z"/>
					<path id="XMLID_522_" style="fill:#F28F8F;" d="M266.944,91.386c0,0-9.909-0.952-13.373-2.794
						c-2.319-1.232-4.228-3.368-4.789-4.738c0,0,0.649,2.94,2.721,5.588c2.533,3.239,15.441,5.624,15.441,5.624L266.944,91.386z"/>
				</g>
				<g id="XMLID_497_">
					<path id="XMLID_517_" style="fill:#263238;" d="M264.563,65.752c0,1.139-0.889,2.061-1.986,2.058
						c-1.097-0.003-1.985-0.929-1.985-2.069c0-1.139,0.889-2.06,1.985-2.058C263.674,63.687,264.563,64.613,264.563,65.752z"/>
					<path id="XMLID_516_" style="fill:#263238;" d="M262.457,58.256l-4.248,2.344c-0.626-1.22-0.183-2.735,0.99-3.382
						C260.372,56.57,261.831,57.035,262.457,58.256z"/>
					<path id="XMLID_515_" style="fill:#F28F8F;" d="M266.047,79.469l4.533,1.701c-0.449,1.299-1.827,1.972-3.079,1.502
						C266.249,82.202,265.598,80.768,266.047,79.469z"/>
					<path id="XMLID_514_" style="fill:#263238;" d="M282.27,59.909l-3.874-2.984c0.79-1.109,2.298-1.34,3.367-0.517
						C282.833,57.232,283.06,58.799,282.27,59.909z"/>
					<path id="XMLID_513_" style="fill:#263238;" d="M281.077,65.187c0,1.139-0.889,2.06-1.986,2.057
						c-1.096-0.003-1.986-0.929-1.986-2.068c0-1.139,0.889-2.061,1.986-2.058C280.188,63.121,281.077,64.048,281.077,65.187z"/>
					<polygon id="XMLID_271_" style="fill:#F28F8F;" points="272.604,63.769 273.256,75.711 279.491,73.585 					"/>
				</g>
			</g>
			<path id="XMLID_267_" style="fill:#37474F;" d="M231.747,101.197c-14.65,0.231-18.451,8.864-22.762,18.009
				c-4.253,9.021-15.282,29.806-15.282,29.806l-27.583-12.474c0,0-1.988,7.457-9.265,11.833c0,0,13.026,10.931,24.216,18.934
				c9.493,6.789,15.009,10.303,18.646,7.874c2.701-1.804,29.627-36.985,29.627-36.985
				C236.195,127.466,237.661,109.303,231.747,101.197z"/>
		</g>
		<g>
			<path style="fill:#27DEBF;" d="M278.396,70.585c-0.04,0-1.571-0.8-1.571-0.8l-1.534-2.198c0,0,0.852-0.38,1.552,0.115
				C277.544,68.197,278.396,70.585,278.396,70.585z"/>
			<path style="opacity:0.65;" d="M278.396,70.585c-0.04,0-1.571-0.8-1.571-0.8l-1.534-2.198c0,0,0.852-0.38,1.552,0.115
				C277.544,68.197,278.396,70.585,278.396,70.585z"/>
			<g>
				<path style="fill:#27DEBF;" d="M293.019,63.723c-0.075,3.233-2.762,6.316-5.888,6.873l-2.473,0.428
					c-1.156,0.203-2.291,0.289-3.276,0.257c-0.107,0-0.214,0-0.332-0.011c-0.182,0-0.364-0.021-0.535-0.032
					c-0.332-0.032-0.632-0.086-0.91-0.15c-0.16-0.032-0.321-0.075-0.461-0.128c-0.15-0.043-0.278-0.096-0.396-0.161
					c-0.054-0.021-0.118-0.054-0.16-0.086c-0.075-0.043-0.139-0.086-0.193-0.128c-0.107-0.096-0.193-0.192-0.246-0.299l-0.845-1.735
					c-0.332-0.674-1.231-1.103-2.013-0.963l-1.766,0.31c-0.781,0.139-1.681,0.888-2.013,1.67c0,0-0.375,0.921-0.846,2.045
					c-0.471,1.124-3.383,2.484-6.509,3.029l-2.473,0.439c-0.524,0.086-1.028,0.107-1.509,0.053c-0.289-0.021-0.557-0.075-0.824-0.15
					c-0.129-0.032-0.257-0.075-0.385-0.118c-0.075-0.032-0.161-0.064-0.236-0.096c-0.214-0.086-0.428-0.193-0.621-0.311
					c-0.674-0.268-11.444-4.646-12.921-8.179c-2.355-5.684,7.333-11.529,10.823-12.643v0.011c0.407-0.161,0.814-0.289,1.242-0.364
					l25.446-4.486c1.37-0.246,2.655,0.032,3.672,0.685c0.653,0.418,3.051,1.831,4.047,2.43c0.086,0.043,0.182,0.096,0.257,0.15
					c0.139,0.086,0.279,0.182,0.418,0.278c0.043,0.032,0.096,0.064,0.129,0.107c0.139,0.107,0.268,0.225,0.396,0.353
					c0.16,0.161,0.3,0.321,0.428,0.503c0.107,0.129,0.193,0.268,0.268,0.407c0.129,0.193,0.225,0.407,0.321,0.621
					c0.075,0.182,0.139,0.375,0.193,0.567c0,0.011,0,0.011,0,0.021c0.053,0.171,0.096,0.353,0.118,0.546
					c0.011,0.043,0.021,0.086,0.021,0.128c0.032,0.203,0.054,0.418,0.054,0.632C293.083,58.724,293.083,61.218,293.019,63.723z"/>
				<g style="opacity:0.2;">
					<path d="M293.019,63.723c-0.075,3.233-2.762,6.316-5.888,6.873l-2.473,0.428c-1.156,0.203-2.291,0.289-3.276,0.257
						c-0.107,0-0.214,0-0.332-0.011c-0.182,0-0.364-0.021-0.535-0.032c-0.332-0.032-0.632-0.086-0.91-0.15
						c-0.16-0.032-0.321-0.075-0.461-0.128c-0.15-0.043-0.278-0.096-0.396-0.161c-0.054-0.021-0.118-0.054-0.16-0.086
						c-0.075-0.043-0.139-0.086-0.193-0.128c-0.107-0.096-0.193-0.192-0.246-0.299l-0.845-1.735
						c-0.332-0.674-1.231-1.103-2.013-0.963l-1.766,0.31c-0.781,0.139-1.681,0.888-2.013,1.67c0,0-0.375,0.921-0.846,2.045
						c-0.471,1.124-3.383,2.484-6.509,3.029l-2.473,0.439c-0.524,0.086-1.028,0.107-1.509,0.053
						c-0.289-0.021-0.557-0.075-0.824-0.15c-0.129-0.032-0.257-0.075-0.385-0.118c-0.075-0.032-0.161-0.064-0.236-0.096
						c-0.214-0.086-0.428-0.193-0.621-0.311c-0.674-0.268-11.444-4.646-12.921-8.179c-2.355-5.684,7.333-11.529,10.823-12.643v0.011
						c0.407-0.161,0.814-0.289,1.242-0.364l25.446-4.486c1.37-0.246,2.655,0.032,3.672,0.685c0.653,0.418,3.051,1.831,4.047,2.43
						c0.086,0.043,0.182,0.096,0.257,0.15c0.139,0.086,0.279,0.182,0.418,0.278c0.043,0.032,0.096,0.064,0.129,0.107
						c0.139,0.107,0.268,0.225,0.396,0.353c0.16,0.161,0.3,0.321,0.428,0.503c0.107,0.129,0.193,0.268,0.268,0.407
						c0.129,0.193,0.225,0.407,0.321,0.621c0.075,0.182,0.139,0.375,0.193,0.567c0,0.011,0,0.011,0,0.021
						c0.053,0.171,0.096,0.353,0.118,0.546c0.011,0.043,0.021,0.086,0.021,0.128c0.032,0.203,0.054,0.418,0.054,0.632
						C293.083,58.724,293.083,61.218,293.019,63.723z"/>
				</g>
				<path style="fill:#27DEBF;" d="M290.418,51.915c-0.953-0.492-2.088-0.685-3.286-0.471l-25.446,4.485
					c-2.987,0.535-5.577,3.372-5.866,6.444l-7.301-4.218c2.548-2.259,5.77-3.961,7.494-4.517v0.011
					c0.407-0.161,0.814-0.289,1.242-0.364l25.446-4.486c1.37-0.246,2.655,0.032,3.672,0.685
					C287.024,49.903,289.422,51.316,290.418,51.915z"/>
				<path style="opacity:0.35;fill:#FFFFFF;" d="M290.418,51.915c-0.953-0.492-2.088-0.685-3.286-0.471l-25.446,4.485
					c-2.987,0.535-5.577,3.372-5.866,6.444l-7.301-4.218c2.548-2.259,5.77-3.961,7.494-4.517v0.011
					c0.407-0.161,0.814-0.289,1.242-0.364l25.446-4.486c1.37-0.246,2.655,0.032,3.672,0.685
					C287.024,49.903,289.422,51.316,290.418,51.915z"/>
			</g>
			<g>
				<path style="fill:#27DEBF;" d="M293.023,56.234c0.058,2.487,0.058,4.986,0,7.494c-0.074,3.232-2.771,6.313-5.894,6.864
					l-2.473,0.436c-3.123,0.551-6.036,0.217-6.506-0.742l-0.845-1.735c-0.329-0.672-1.233-1.105-2.014-0.967l-1.767,0.312
					c-0.781,0.138-1.681,0.888-2.01,1.676c0,0-0.381,0.912-0.851,2.037c-0.47,1.125-3.382,2.483-6.506,3.034l-2.472,0.436
					c-3.123,0.551-5.82-1.579-5.894-4.785c-0.058-2.488-0.058-4.987,0-7.495c0.074-3.232,2.771-6.314,5.894-6.865l25.443-4.486
					C290.252,50.896,292.948,53.027,293.023,56.234z"/>
				<path style="opacity:0.5;fill:#FFFFFF;" d="M293.019,63.723c-0.075,3.233-2.762,6.316-5.888,6.873l-2.473,0.428
					c-1.156,0.203-2.291,0.289-3.276,0.257c-0.107,0-0.214,0-0.332-0.011c-0.182,0-0.364-0.021-0.535-0.032
					c-0.332-0.032-0.632-0.086-0.91-0.15c-0.16-0.032-0.321-0.075-0.461-0.128c-0.15-0.043-0.278-0.096-0.396-0.161
					c-0.054-0.021-0.118-0.054-0.16-0.086c-0.075-0.043-0.139-0.086-0.193-0.128c-0.107-0.096-0.193-0.192-0.246-0.299l-0.845-1.735
					c-0.332-0.674-1.231-1.103-2.013-0.963l-1.766,0.31c-0.781,0.139-1.681,0.888-2.013,1.67c0,0-0.375,0.921-0.846,2.045
					c-0.471,1.124-3.383,2.484-6.509,3.029l-2.473,0.439c-0.524,0.086-1.028,0.107-1.509,0.053c-0.289-0.021-0.557-0.075-0.824-0.15
					c-0.129-0.032-0.257-0.075-0.385-0.118c-0.075-0.032-0.161-0.064-0.236-0.096c-0.214-0.086-0.428-0.193-0.621-0.311
					c-1.37-0.835-2.28-2.323-2.323-4.164c-0.054-2.494-0.054-4.989,0-7.494c0.075-3.233,2.773-6.316,5.898-6.873l25.446-4.485
					c1.199-0.214,2.334-0.021,3.286,0.471c0.086,0.043,0.182,0.096,0.257,0.15c0.139,0.086,0.279,0.182,0.418,0.278
					c0.043,0.032,0.096,0.064,0.129,0.107c0.139,0.107,0.268,0.225,0.396,0.353c0.16,0.161,0.3,0.321,0.428,0.503
					c0.107,0.129,0.193,0.268,0.268,0.407c0.129,0.193,0.225,0.407,0.321,0.621c0.075,0.182,0.139,0.375,0.193,0.567
					c0,0.011,0,0.011,0,0.021c0.053,0.171,0.096,0.353,0.118,0.546c0.011,0.043,0.021,0.086,0.021,0.128
					c0.032,0.203,0.054,0.418,0.054,0.632C293.083,58.724,293.083,61.218,293.019,63.723z"/>
			</g>
			<g style="opacity:0.7;">
				<path style="fill:#27DEBF;" d="M293.019,56.229c0-0.214-0.022-0.428-0.054-0.632c0-0.043-0.011-0.086-0.021-0.128
					c-0.021-0.193-0.064-0.375-0.118-0.546c0-0.011,0-0.011,0-0.021c-0.054-0.193-0.118-0.385-0.193-0.567
					c-0.096-0.214-0.193-0.428-0.321-0.621c-0.075-0.139-0.161-0.278-0.268-0.407c-0.128-0.182-0.268-0.343-0.428-0.503
					c-0.128-0.128-0.257-0.246-0.396-0.353c-0.031-0.04-0.08-0.07-0.121-0.101l-15.23,15.23c0.607,0.087,1.182,0.459,1.434,0.971
					l0.845,1.735c0.054,0.107,0.139,0.203,0.246,0.299c0.054,0.043,0.118,0.086,0.193,0.128c0.043,0.032,0.107,0.064,0.16,0.086
					c0.118,0.064,0.246,0.118,0.396,0.161c0.139,0.053,0.3,0.096,0.461,0.128c0.278,0.064,0.578,0.118,0.91,0.15
					c0.171,0.011,0.353,0.032,0.535,0.032c0.118,0.011,0.225,0.011,0.332,0.011c0.608,0.02,1.281-0.021,1.972-0.091l9.693-9.693
					C293.066,59.739,293.064,57.984,293.019,56.229z"/>
				<path style="fill:#27DEBF;" d="M280.941,52.535l-22.227,22.227c0.006,0.002,0.011,0.006,0.017,0.008
					c0.075,0.032,0.16,0.064,0.236,0.096c0.128,0.043,0.257,0.086,0.385,0.118c0.268,0.075,0.535,0.128,0.824,0.15
					c0.482,0.054,0.985,0.032,1.509-0.053l1.619-0.287l23.247-23.247L280.941,52.535z"/>
				<path style="fill:#27DEBF;" d="M265.118,55.325l-9.351,9.351c-0.02,1.876-0.02,3.749,0.02,5.62
					c0.021,0.92,0.259,1.751,0.662,2.457l19.303-19.303L265.118,55.325z"/>
			</g>
			<path style="fill:#263238;" d="M249.895,65.141c0,0.629-0.456,1.066-1.018,0.978c-0.562-0.089-1.018-0.67-1.018-1.298
				c0-0.628,0.456-1.066,1.018-0.978C249.439,63.931,249.895,64.513,249.895,65.141z"/>
			<g style="opacity:0.5;">
				<path d="M288.097,51.893L288.097,51.893c0.738,0,1.437,0.167,2.082,0.501c0.061,0.031,0.131,0.068,0.217,0.128
					c0.131,0.081,0.262,0.171,0.377,0.251l0.048,0.035l0.018,0.024l0.057,0.043c0.109,0.084,0.218,0.182,0.344,0.308
					c0.147,0.147,0.265,0.285,0.396,0.467c0.071,0.084,0.136,0.185,0.207,0.317l0.012,0.023l0.014,0.021
					c0.105,0.157,0.189,0.344,0.271,0.527c0.055,0.134,0.107,0.282,0.153,0.439v0.028l0.024,0.078
					c0.049,0.159,0.081,0.305,0.097,0.447l0.009,0.034l0.009,0.035v0.042l0.007,0.042c0.031,0.197,0.047,0.382,0.047,0.562
					c0.063,2.472,0.063,4.984,0,7.467c-0.068,2.933-2.562,5.844-5.444,6.358l-2.474,0.429c-0.95,0.167-1.908,0.255-2.771,0.255
					c-0.134,0-0.265-0.002-0.412-0.007c-0.009,0-0.018,0-0.028,0c-0.082,0-0.17,0-0.304-0.011c-0.11,0-0.221-0.009-0.327-0.018
					l-0.156-0.011c-0.279-0.027-0.554-0.072-0.857-0.142c-0.143-0.029-0.272-0.064-0.418-0.118c-0.106-0.03-0.198-0.067-0.287-0.116
					l-0.064-0.031l-0.03-0.012l-0.028-0.021l-0.031-0.017c-0.048-0.027-0.089-0.054-0.099-0.061
					c-0.087-0.078-0.116-0.122-0.123-0.136l-0.847-1.736c-0.373-0.759-1.274-1.288-2.19-1.289c-0.135,0-0.268,0.012-0.395,0.034
					l-1.767,0.311c-0.951,0.169-2.01,1.042-2.414,1.995c0,0.001-0.374,0.919-0.844,2.039c-0.351,0.838-2.945,2.157-6.108,2.709
					l-2.466,0.438c-0.307,0.05-0.605,0.076-0.884,0.076c-0.163,0-0.322-0.008-0.499-0.028c-0.232-0.017-0.46-0.059-0.734-0.135
					c-0.115-0.029-0.23-0.067-0.305-0.09l-0.128-0.052l-0.12-0.049c-0.186-0.075-0.373-0.168-0.541-0.271
					c-1.276-0.778-2.03-2.133-2.066-3.719c-0.053-2.473-0.053-4.987,0-7.47c0.068-2.932,2.567-5.843,5.456-6.358l25.447-4.486
					C287.516,51.919,287.809,51.893,288.097,51.893 M288.097,51.358c-0.315,0-0.638,0.028-0.965,0.087l-25.446,4.485
					c-3.126,0.557-5.824,3.64-5.898,6.873c-0.053,2.505-0.053,4.999,0,7.494c0.043,1.841,0.953,3.329,2.323,4.164
					c0.193,0.118,0.407,0.225,0.621,0.311c0.075,0.032,0.161,0.064,0.236,0.096c0.128,0.043,0.257,0.086,0.385,0.118
					c0.268,0.075,0.535,0.128,0.824,0.15c0.177,0.02,0.356,0.029,0.539,0.029c0.315,0,0.638-0.029,0.97-0.083l2.473-0.439
					c3.126-0.546,6.038-1.906,6.509-3.03c0.471-1.124,0.846-2.045,0.846-2.045c0.332-0.782,1.231-1.531,2.013-1.67l1.766-0.311
					c0.099-0.018,0.201-0.026,0.302-0.026c0.699,0,1.421,0.401,1.71,0.99l0.846,1.735c0.053,0.107,0.139,0.203,0.246,0.299
					c0.053,0.043,0.118,0.086,0.193,0.128c0.043,0.032,0.107,0.064,0.16,0.086c0.118,0.064,0.246,0.118,0.396,0.161
					c0.139,0.053,0.3,0.096,0.46,0.128c0.278,0.064,0.578,0.118,0.91,0.15c0.171,0.011,0.353,0.032,0.535,0.032
					c0.118,0.011,0.225,0.011,0.331,0.011c0.135,0.004,0.272,0.007,0.412,0.007c0.884,0,1.866-0.088,2.864-0.263l2.473-0.428
					c3.126-0.557,5.813-3.64,5.888-6.873c0.064-2.505,0.064-4.999,0-7.493c0-0.214-0.022-0.428-0.054-0.632
					c0-0.043-0.01-0.086-0.021-0.128c-0.021-0.193-0.064-0.375-0.118-0.546c0-0.011,0-0.011,0-0.021
					c-0.054-0.193-0.118-0.385-0.193-0.567c-0.096-0.214-0.193-0.428-0.321-0.621c-0.075-0.139-0.16-0.278-0.268-0.407
					c-0.128-0.182-0.268-0.343-0.428-0.503c-0.128-0.128-0.257-0.246-0.396-0.353c-0.033-0.043-0.086-0.075-0.129-0.107
					c-0.139-0.096-0.278-0.193-0.418-0.278c-0.075-0.054-0.171-0.107-0.257-0.15C289.725,51.557,288.936,51.358,288.097,51.358
					L288.097,51.358z"/>
			</g>
			<path style="fill:#FFFFFF;" d="M255.787,70.296l-0.13-5.385c0.004-0.904-0.069-1.782,0.005-2.709
				c0.097-0.918,0.397-1.807,0.833-2.617c0.873-1.618,2.319-2.947,4.066-3.597c0.891-0.327,1.792-0.413,2.666-0.589l2.649-0.479
				l10.615-1.809c3.541-0.588,7.088-1.141,10.64-1.666c-3.518,0.721-7.04,1.413-10.568,2.072l-10.593,1.93l-2.653,0.455
				c-0.883,0.168-1.788,0.253-2.588,0.544c-1.635,0.583-2.997,1.84-3.875,3.339c-0.434,0.756-0.741,1.592-0.857,2.458
				c-0.096,0.862-0.046,1.783-0.079,2.672L255.787,70.296z"/>
		</g>
	</g>
</g>
<g id="Windows">
	<g>
		<g style="opacity:0.3;">
			<path style="fill:#27DEBF;" d="M436.097,27.08v129.457c-2.216,13.553-9.185,26.859-21.035,39.084
				c-4.047,4.175-8.607,8.232-13.745,12.097c-4.56,3.361-9.495,6.648-14.88,9.752c-19.58,11.337-42.767,19.323-67.41,24.012
				c-3.918,0.749-7.879,1.413-11.872,1.991V113.427c27.694-4.475,53.793-12.728,75.653-24.761
				c27.137-14.944,43.688-33.507,49.682-52.862c0-0.011,0-0.021,0.011-0.021c1.145-2.912,2.077-5.845,2.772-8.8
				C435.39,26.501,436.097,26.598,436.097,27.08z"/>
		</g>
		<g>
			<path style="fill:#27DEBF;" d="M306.619,244.09V112.971l0.45-0.072c28.339-4.579,54.439-13.12,75.48-24.701
				c26.115-14.382,43.197-32.525,49.404-52.475v-0.454l0.175-0.007c1.09-2.813,1.972-5.638,2.622-8.401
				c0.119-0.479,0.554-0.779,1.04-0.723c0.488,0.059,0.842,0.455,0.842,0.941v129.457c-2.295,14.073-9.421,27.319-21.187,39.456
				c-4.193,4.327-8.839,8.416-13.809,12.152c-4.942,3.644-9.826,6.844-14.934,9.789c-19.143,11.084-41.88,19.184-67.578,24.073
				c-3.909,0.748-7.912,1.419-11.896,1.994L306.619,244.09z M307.689,113.882v128.971c3.765-0.553,7.542-1.19,11.236-1.896
				c25.579-4.868,48.203-12.926,67.242-23.949c5.074-2.926,9.925-6.105,14.831-9.721c4.92-3.7,9.523-7.752,13.678-12.038
				c11.611-11.979,18.641-25.031,20.893-38.798l-0.007-128.397c-0.661,2.614-1.522,5.276-2.564,7.926l-0.012,0.03
				c-6.283,20.23-23.545,38.6-49.921,53.126C362.03,100.713,335.975,109.267,307.689,113.882z"/>
		</g>
		<g id="XMLID_512_">
			<g id="XMLID_581_">
				<path style="fill:#FFFFFF;" d="M337.21,211.193c-0.233,0-0.463-0.076-0.651-0.221c-0.265-0.203-0.419-0.517-0.419-0.85v-76.46
					c0-0.484,0.325-0.908,0.793-1.034c6.33-1.696,12.167-3.512,17.844-5.549c0.326-0.116,0.693-0.068,0.978,0.132
					c0.285,0.201,0.454,0.527,0.454,0.876v76.461c0,0.452-0.283,0.855-0.709,1.008c-5.747,2.061-11.639,3.893-18.012,5.601
					C337.396,211.182,337.303,211.193,337.21,211.193z M338.281,134.484v74.24c5.543-1.517,10.728-3.136,15.787-4.93v-74.19
					C349.024,131.372,343.837,132.976,338.281,134.484z"/>
			</g>
			<g id="XMLID_580_">
				<path style="fill:#FFFFFF;" d="M371.609,198.904c-0.204,0-0.407-0.058-0.583-0.173c-0.304-0.197-0.487-0.535-0.487-0.897
					v-76.461c0-0.423,0.249-0.807,0.636-0.979c4.647-2.064,9.464-4.535,14.726-7.552c1.091-0.578,2.096-1.207,3.067-1.815
					c0.332-0.206,0.748-0.218,1.087-0.029c0.341,0.188,0.552,0.547,0.552,0.937v76.46c0,0.369-0.189,0.712-0.502,0.907
					c-1.01,0.632-2.054,1.285-3.171,1.877c-5.295,3.036-10.175,5.538-14.89,7.634C371.905,198.874,371.756,198.904,371.609,198.904z
					 M372.679,122.067v74.109c4.183-1.923,8.524-4.18,13.221-6.872c0.896-0.476,1.744-0.991,2.565-1.503v-73.949
					c-0.495,0.295-1.004,0.586-1.532,0.866C381.876,117.617,377.197,120.03,372.679,122.067z"/>
			</g>
			<g id="XMLID_579_">
				<path style="fill:#FFFFFF;" d="M405.944,177.873c-0.155,0-0.311-0.033-0.456-0.102c-0.375-0.177-0.614-0.554-0.614-0.969
					v-76.461c0-0.319,0.142-0.622,0.388-0.825c3.255-2.69,6.296-5.479,9.038-8.285c3.173-3.231,6.098-6.745,8.695-10.445
					c0.268-0.383,0.754-0.548,1.198-0.405c0.445,0.141,0.748,0.554,0.748,1.021v76.46c0,0.22-0.067,0.435-0.194,0.615
					c-2.664,3.795-5.664,7.399-8.918,10.714c-2.793,2.858-5.89,5.697-9.202,8.438C406.43,177.789,406.188,177.873,405.944,177.873z
					 M407.014,100.845v73.656c2.598-2.229,5.041-4.513,7.285-6.809c3.095-3.152,5.953-6.572,8.501-10.171V84.678
					c-2.152,2.824-4.488,5.523-6.972,8.052C413.145,95.477,410.181,98.205,407.014,100.845z"/>
			</g>
		</g>
		<g style="opacity:0.3;">
			<path style="fill:#27DEBF;" d="M320.111,224.447l43.486-80.34l34.788,45.191C398.385,189.298,383.725,210.281,320.111,224.447z"
				/>
		</g>
	</g>
	<g>
		<g style="opacity:0.3;">
			<path style="fill:#27DEBF;" d="M239.326,229.277c-39.705-2.12-78.361-11.551-108.774-28.294
				c-34.224-18.852-51.631-43.452-52.209-68.149v-2.451L78.033,47.18c-0.021-5.941,10.459,10.901,32.372,28.168
				c0.514,0.417,1.038,0.814,1.563,1.22c1.221,0.942,2.473,1.863,3.768,2.783c4.55,3.233,9.528,6.348,14.923,9.313
				c30.295,16.689,68.78,26.11,108.335,28.261L239.326,229.277z"/>
		</g>
		<g>
			<path style="fill:#27DEBF;" d="M79.144,46.731h0.005H79.144 M79.103,47.299c1.194,0.832,3.652,3.414,6.231,6.123
				c5.364,5.634,13.47,14.149,24.395,22.758c0.384,0.312,0.775,0.613,1.167,0.915l0.417,0.322c1.167,0.901,2.411,1.82,3.802,2.808
				c4.615,3.279,9.671,6.435,15.026,9.379c28.951,15.948,67.195,25.998,107.785,28.336l0.326,110.206
				c-40.398-2.302-78.421-12.266-107.184-28.1c-32.717-18.022-51.062-41.9-51.655-67.211v-2.455L79.103,47.299 M78.644,45.963
				c-0.411,0-0.614,0.386-0.611,1.217l0.311,83.203v2.451c0.578,24.697,17.985,49.297,52.209,68.149
				c30.413,16.743,69.069,26.174,108.774,28.294l-0.332-112.35c-39.555-2.152-78.04-11.572-108.336-28.261
				c-5.395-2.965-10.373-6.08-14.923-9.313c-1.295-0.921-2.548-1.841-3.768-2.783c-0.525-0.407-1.049-0.803-1.563-1.22
				C91.558,60.498,81.169,45.962,78.644,45.963L78.644,45.963z"/>
		</g>
		<g>
			<path style="fill:#FFFFFF;" d="M200.933,213.32c-0.049,0-0.099-0.003-0.147-0.01c-0.321-0.045-32.497-4.664-63.793-20.546
				c-35.858-18.2-49.946-46.417-50.084-46.7c-0.071-0.146-0.108-0.307-0.108-0.47v-21.571c0-0.222,0.068-0.438,0.196-0.618
				l23.516-33.231c0.225-0.315,0.608-0.487,0.986-0.446c0.386,0.041,0.719,0.286,0.872,0.643l29.165,68.032l-2.533-12.597
				c-0.083-0.416,0.087-0.842,0.434-1.086l23.514-16.551c0.243-0.172,0.546-0.234,0.84-0.172c0.291,0.062,0.544,0.243,0.696,0.499
				l37.364,62.766c0.099,0.166,0.15,0.355,0.15,0.548l0.003,20.441c0,0.309-0.134,0.605-0.367,0.808
				C201.44,213.229,201.19,213.32,200.933,213.32z M88.941,145.338c1.359,2.612,15.474,28.49,49.02,45.518
				c27.552,13.982,55.77,19.143,61.901,20.145l-0.003-18.895l-36.623-61.521l-21.997,15.484l4.432,22.038
				c0.107,0.538-0.208,1.07-0.731,1.233c-0.521,0.16-1.086-0.097-1.303-0.601l-32.481-75.768l-22.215,31.394V145.338z"/>
		</g>
		<g>
			<path style="fill:#FFFFFF;" d="M200.523,149.988c-0.663,0-1.337-0.066-2.018-0.199c-6.443-1.263-11.686-8.316-11.686-15.725
				c0-3.932,1.484-7.409,4.072-9.539c2.226-1.832,5.071-2.521,8.025-1.944c6.443,1.263,11.686,8.316,11.686,15.725
				c0,3.932-1.484,7.409-4.072,9.539C204.818,149.254,202.736,149.988,200.523,149.988z M196.913,124.526
				c-1.724,0-3.338,0.565-4.659,1.653c-2.093,1.722-3.293,4.597-3.293,7.886c0,6.436,4.467,12.548,9.957,13.623
				c2.309,0.453,4.529-0.079,6.252-1.496c2.093-1.722,3.293-4.597,3.293-7.886c0-6.437-4.467-12.548-9.957-13.623
				C197.968,124.577,197.435,124.526,196.913,124.526z"/>
		</g>
		<g>
			<g style="opacity:0.3;">
				<path style="fill:#27DEBF;" d="M85.82,72.608c0,0,9.75,17.132,29.915,24.579l-0.001-9.677
					C96.4,78.367,85.82,61.258,85.82,61.258V72.608z"/>
			</g>
			<g style="opacity:0.3;">
				<path style="fill:#27DEBF;" d="M85.82,90.149c0,0,9.75,17.132,29.915,24.579l-0.001-9.677
					C96.4,95.908,85.82,78.799,85.82,78.799V90.149z"/>
			</g>
			<g style="opacity:0.3;">
				<path style="fill:#27DEBF;" d="M85.82,107.69c0,0,9.75,17.132,29.915,24.579l-0.001-9.677C96.4,113.449,85.82,96.34,85.82,96.34
					V107.69z"/>
			</g>
		</g>
	</g>
</g>
</svg>
