<?xml version="1.0" encoding="utf-8"?>
<!-- Generator: Adobe Illustrator 27.5.0, SVG Export Plug-In . SVG Version: 6.00 Build 0)  -->
<svg version="1.1" id="Banner_8_" xmlns="http://www.w3.org/2000/svg" xmlns:xlink="http://www.w3.org/1999/xlink" x="0px" y="0px"
	 viewBox="0 0 560 315" style="enable-background:new 0 0 560 315;" xml:space="preserve">
<g id="Background_1_">
	<defs>
		
			<rect id="SVGID_1_" x="122.5" y="-122.5" transform="matrix(-1.836970e-16 1 -1 -1.836970e-16 437.5 -122.5)" width="315" height="560"/>
	</defs>
	<clipPath id="SVGID_00000113346629070105737950000009839217138953088400_">
		<use xlink:href="#SVGID_1_"  style="overflow:visible;"/>
	</clipPath>
	
		<linearGradient id="SVGID_00000130610359460550047410000007635243245385309573_" gradientUnits="userSpaceOnUse" x1="285.7899" y1="426.7234" x2="275.9255" y2="-31.9617">
		<stop  offset="0.1782" style="stop-color:#A1CFDD"/>
		<stop  offset="0.2709" style="stop-color:#96CCDB"/>
		<stop  offset="0.4321" style="stop-color:#7AC2D5"/>
		<stop  offset="0.6425" style="stop-color:#4CB3CD"/>
		<stop  offset="0.8915" style="stop-color:#0C9FC0"/>
		<stop  offset="0.9364" style="stop-color:#009BBE"/>
	</linearGradient>
	
		<polygon style="clip-path:url(#SVGID_00000113346629070105737950000009839217138953088400_);fill:url(#SVGID_00000130610359460550047410000007635243245385309573_);" points="
		0,315 0,0 560,0 560,315 	"/>
	<g style="clip-path:url(#SVGID_00000113346629070105737950000009839217138953088400_);">
		<g style="opacity:0.5;">
			<g>
				<path style="opacity:0.49;fill:#FFFFFF;" d="M177.401,318.718H66.307l-0.048-0.083l-55.499-96.128l0.048-0.083l55.499-96.128
					h111.094l0.048,0.083l55.499,96.128l-0.048,0.083L177.401,318.718z M66.498,318.387H177.21l55.356-95.879l-55.356-95.879H66.498
					l-55.356,95.879L66.498,318.387z"/>
			</g>
			<g>
				<path style="opacity:0.49;fill:#FFFFFF;" d="M261.157,243.588H150.062l-0.048-0.083l-55.499-96.128l0.048-0.083l55.499-96.128
					h111.094l0.048,0.083l55.499,96.128l-0.048,0.083L261.157,243.588z M150.253,243.257h110.712l55.356-95.88l-55.356-95.88
					H150.253l-55.356,95.88L150.253,243.257z"/>
			</g>
		</g>
		<g style="opacity:0.5;">
			<g>
				<path style="opacity:0.52;fill:#FFFFFF;" d="M543.792,138.52H432.698l-0.048-0.083l-55.5-96.128l0.048-0.083l55.5-96.128
					h111.094l0.048,0.083L599.34,42.31l-0.048,0.083L543.792,138.52z M432.889,138.189h110.712l55.356-95.879l-55.356-95.88H432.889
					l-55.356,95.88L432.889,138.189z"/>
			</g>
		</g>
		<g style="opacity:0.15;">
			<polygon style="fill:#FFFFFF;" points="444.936,172.11 334.033,172.11 278.581,268.155 334.033,364.2 444.936,364.2 
				500.388,268.155 			"/>
		</g>
		<g style="opacity:0.1;">
			<polygon style="fill:#FFFFFF;" points="520.446,46.06 409.542,46.06 354.091,142.105 409.542,238.15 520.446,238.15 
				575.897,142.105 			"/>
		</g>
		<g style="opacity:0.13;">
			<polygon style="fill:#FFFFFF;" points="137.328,-27.465 26.425,-27.465 -29.026,68.58 26.425,164.625 137.328,164.625 
				192.78,68.58 			"/>
		</g>
	</g>
</g>
<g id="Graphic_Elements_1_">
	<g>
		<path style="fill:#FFFFFF;" d="M292.167,292.531h-35.396l-17.698-30.848l17.698-30.848h35.396l17.698,30.848L292.167,292.531z
			 M257.196,291.792h34.547l17.274-30.108l-17.274-30.108h-34.547l-17.273,30.108L257.196,291.792z"/>
		<path style="fill:#FFFFFF;" d="M292.167,225.856h-35.396l-17.698-30.848l17.698-30.848h35.396l17.698,30.848L292.167,225.856z
			 M257.196,225.116h34.547l17.274-30.108L291.743,164.9h-34.547l-17.273,30.108L257.196,225.116z"/>
		<path style="fill:#FFFFFF;" d="M348.301,259.194h-35.396l-17.698-30.848l17.698-30.848h35.396l17.698,30.848L348.301,259.194z
			 M313.33,258.454h34.547l17.274-30.108l-17.274-30.108H313.33l-17.274,30.108L313.33,258.454z"/>
		<path style="fill:#FFFFFF;" d="M405.488,225.856h-35.396l-17.698-30.848l17.698-30.848h35.396l17.698,30.848L405.488,225.856z
			 M370.516,225.116h34.547l17.274-30.108L405.063,164.9h-34.547l-17.274,30.108L370.516,225.116z"/>
		<path style="fill:#FFFFFF;" d="M348.301,192.518h-35.396l-17.698-30.848l17.698-30.848h35.396l17.698,30.848L348.301,192.518z
			 M313.33,191.779h34.547l17.274-30.108l-17.274-30.108H313.33l-17.274,30.108L313.33,191.779z"/>
		<path style="fill:#FFFFFF;" d="M179.798,225.856h-35.396l-17.698-30.848l17.698-30.848h35.396l17.698,30.848L179.798,225.856z
			 M144.827,225.116h34.547l17.274-30.108L179.374,164.9h-34.547l-17.274,30.108L144.827,225.116z"/>
		<path style="fill:#FFFFFF;" d="M179.798,159.181h-35.396l-17.698-30.848l17.698-30.848h35.396l17.698,30.848L179.798,159.181z
			 M144.827,158.441h34.547l17.274-30.108l-17.274-30.108h-34.547l-17.274,30.108L144.827,158.441z"/>
		<path style="fill:#FFFFFF;" d="M235.932,259.194h-35.396l-17.698-30.848l17.698-30.848h35.396l17.698,30.848L235.932,259.194z
			 M200.96,258.454h34.547l17.274-30.108l-17.274-30.108H200.96l-17.274,30.108L200.96,258.454z"/>
		<path style="fill:#FFFFFF;" d="M235.932,192.518h-35.396l-17.698-30.848l17.698-30.848h35.396l17.698,30.848L235.932,192.518z
			 M200.96,191.779h34.547l17.274-30.108l-17.274-30.108H200.96l-17.274,30.108L200.96,191.779z"/>
		<path style="fill:#FFFFFF;" d="M405.488,292.531h-35.396l-17.698-30.848l17.698-30.848h35.396l17.698,30.848L405.488,292.531z
			 M370.516,291.792h34.547l17.274-30.108l-17.274-30.108h-34.547l-17.274,30.108L370.516,291.792z"/>
		<path style="fill:#FFFFFF;" d="M463.06,192.518h-35.396l-17.698-30.848l17.698-30.848h35.396l17.698,30.848L463.06,192.518z
			 M428.089,191.779h34.547l17.273-30.108l-17.273-30.108h-34.547l-17.274,30.108L428.089,191.779z"/>
		<path style="fill:#FFFFFF;" d="M122.645,259.194H87.249l-17.698-30.848l17.698-30.848h35.396l17.698,30.848L122.645,259.194z
			 M87.674,258.454h34.547l17.274-30.108l-17.274-30.108H87.674L70.4,228.346L87.674,258.454z"/>
		<path style="fill:#FFFFFF;" d="M292.167,159.181h-35.396l-17.698-30.848l17.698-30.848h35.396l17.698,30.848L292.167,159.181z
			 M257.196,158.441h34.547l17.274-30.108l-17.274-30.108h-34.547l-17.273,30.108L257.196,158.441z"/>
	</g>
	<polygon style="fill:#FFFFFF;" points="291.201,192.43 279.874,192.43 279.874,181.031 269.065,181.031 269.065,192.43 
		257.738,192.43 257.738,203.306 269.065,203.306 269.065,214.705 279.874,214.705 279.874,203.306 291.201,203.306 	"/>
	<g>
		<path style="fill:#FFFFFF;" d="M387.79,282.629c-3.498,0-5.588-9.425-5.588-18.538c0-9.112,2.09-18.538,5.588-18.538
			c3.498,0,5.588,9.426,5.588,18.538C393.378,273.203,391.287,282.629,387.79,282.629z M387.79,246.293
			c-2.344,0-4.853,7.152-4.853,17.798s2.509,17.798,4.853,17.798c2.344,0,4.853-7.152,4.853-17.798S390.133,246.293,387.79,246.293z
			"/>
		<path style="fill:#FFFFFF;" d="M387.79,282.629c-3.498,0-5.588-9.425-5.588-18.538c0-9.112,2.09-18.538,5.588-18.538
			c3.498,0,5.588,9.426,5.588,18.538C393.378,273.203,391.287,282.629,387.79,282.629z M387.79,246.293
			c-2.344,0-4.853,7.152-4.853,17.798s2.509,17.798,4.853,17.798c2.344,0,4.853-7.152,4.853-17.798S390.133,246.293,387.79,246.293z
			"/>
		<path style="fill:#FFFFFF;" d="M375.289,275.847c-1.143,0-2.011-0.307-2.495-0.988c-2.032-2.865,4.379-10.052,11.749-15.345
			c3.953-2.838,7.991-5.061,11.371-6.258c3.567-1.264,5.943-1.24,6.869,0.067c0.927,1.307,0.176,3.575-2.171,6.559
			c-2.224,2.827-5.626,5.948-9.578,8.786C385.418,272.702,378.949,275.847,375.289,275.847z M400.285,253.066
			c-1.053,0-2.456,0.297-4.126,0.888c-3.317,1.174-7.29,3.363-11.188,6.162c-8.612,6.184-12.939,12.394-11.578,14.314
			c1.36,1.919,8.604-0.179,17.216-6.363l0,0c3.898-2.799,7.247-5.869,9.429-8.643c2.062-2.622,2.845-4.689,2.149-5.67
			C401.861,253.294,401.208,253.066,400.285,253.066z"/>
		<path style="fill:#FFFFFF;" d="M375.289,275.847c-1.143,0-2.011-0.307-2.495-0.988c-2.032-2.865,4.379-10.052,11.749-15.345
			c3.953-2.838,7.991-5.061,11.371-6.258c3.567-1.264,5.943-1.24,6.869,0.067c0.927,1.307,0.176,3.575-2.171,6.559
			c-2.224,2.827-5.626,5.948-9.578,8.786C385.418,272.702,378.949,275.847,375.289,275.847z M400.285,253.066
			c-1.053,0-2.456,0.297-4.126,0.888c-3.317,1.174-7.29,3.363-11.188,6.162c-8.612,6.184-12.939,12.394-11.578,14.314
			c1.36,1.919,8.604-0.179,17.216-6.363l0,0c3.898-2.799,7.247-5.869,9.429-8.643c2.062-2.622,2.845-4.689,2.149-5.67
			C401.861,253.294,401.208,253.066,400.285,253.066z"/>
		<path style="fill:#FFFFFF;" d="M400.279,275.857c-1.147,0-2.611-0.31-4.364-0.931c-3.38-1.197-7.418-3.419-11.371-6.258
			c-7.371-5.293-13.781-12.48-11.749-15.345c2.03-2.867,10.87,0.897,18.24,6.191c3.953,2.838,7.354,5.959,9.578,8.786
			c2.347,2.984,3.098,5.252,2.171,6.559C402.313,275.524,401.466,275.856,400.279,275.857z M375.308,253.066
			c-0.932,0-1.591,0.229-1.915,0.687c-1.361,1.92,2.966,8.13,11.578,14.314l0,0c3.898,2.799,7.871,4.988,11.188,6.162
			c3.134,1.109,5.331,1.183,6.027,0.201c0.696-0.982-0.087-3.049-2.149-5.67c-2.182-2.775-5.531-5.844-9.429-8.643
			C384.05,255.406,378.285,253.066,375.308,253.066z"/>
		<path style="fill:#FFFFFF;" d="M400.279,275.857c-1.147,0-2.611-0.31-4.364-0.931c-3.38-1.197-7.418-3.419-11.371-6.258
			c-7.371-5.293-13.781-12.48-11.749-15.345c2.03-2.867,10.87,0.897,18.24,6.191c3.953,2.838,7.354,5.959,9.578,8.786
			c2.347,2.984,3.098,5.252,2.171,6.559C402.313,275.524,401.466,275.856,400.279,275.857z M375.308,253.066
			c-0.932,0-1.591,0.229-1.915,0.687c-1.361,1.92,2.966,8.13,11.578,14.314l0,0c3.898,2.799,7.871,4.988,11.188,6.162
			c3.134,1.109,5.331,1.183,6.027,0.201c0.696-0.982-0.087-3.049-2.149-5.67c-2.182-2.775-5.531-5.844-9.429-8.643
			C384.05,255.406,378.285,253.066,375.308,253.066z"/>
	</g>
	<g>
		<path style="fill:#FFFFFF;" d="M174.063,118.761c0.202-0.355,0.146-0.817-0.162-1.11c-0.361-0.344-0.933-0.328-1.274,0.035
			c-0.342,0.363-0.326,0.939,0.035,1.283c0.308,0.293,0.769,0.324,1.11,0.101l4.474,4.26v4.668l-3.36,6.414l-8.747,3.812v10.856
			c-0.395,0.096-0.69,0.454-0.69,0.881c0,0.5,0.404,0.907,0.902,0.907s0.902-0.407,0.902-0.907c0-0.427-0.295-0.785-0.69-0.881
			v-10.576l8.628-3.761l3.479-6.64v-4.957L174.063,118.761z"/>
		<path style="fill:#FFFFFF;" d="M173.799,117.554C173.797,117.552,173.797,117.552,173.799,117.554L173.799,117.554z"/>
		<path style="fill:#FFFFFF;" d="M173.821,117.575c-0.01-0.01-0.018-0.017-0.022-0.021
			C173.803,117.557,173.81,117.564,173.821,117.575z"/>
		<path style="fill:#FFFFFF;" d="M173.826,117.58c-0.002-0.002-0.003-0.003-0.005-0.004
			C173.823,117.577,173.824,117.578,173.826,117.58z"/>
		<path style="fill:#FFFFFF;" d="M173.864,117.616c-0.014-0.013-0.027-0.026-0.038-0.036
			C173.836,117.589,173.849,117.601,173.864,117.616z"/>
		<path style="fill:#FFFFFF;" d="M173.885,117.636c-0.008-0.007-0.015-0.014-0.021-0.021
			C173.871,117.622,173.878,117.629,173.885,117.636z"/>
		<path style="fill:#FFFFFF;" d="M173.954,117.702c0.015,0.014,0.026,0.025,0.035,0.033
			C173.98,117.726,173.968,117.715,173.954,117.702z"/>
		<path style="fill:#FFFFFF;" d="M174.003,117.748C174.006,117.751,174.006,117.751,174.003,117.748L174.003,117.748z"/>
		<path style="fill:#FFFFFF;" d="M173.989,117.735c0.007,0.006,0.012,0.011,0.014,0.013
			C174.001,117.746,173.996,117.742,173.989,117.735z"/>
		<path style="fill:#FFFFFF;" d="M173.885,117.636c0.005,0.005,0.01,0.01,0.016,0.015c0.005,0.005,0.009,0.008,0.013,0.012
			C173.905,117.654,173.895,117.645,173.885,117.636z"/>
		<path style="fill:#FFFFFF;" d="M173.914,117.664c0.014,0.013,0.028,0.026,0.04,0.038
			C173.943,117.691,173.93,117.678,173.914,117.664z"/>
		<path style="fill:#FFFFFF;" d="M168.867,139.559c-0.497,0-0.902,0.407-0.902,0.907c0,0.427,0.295,0.785,0.69,0.881v4.023
			c-0.395,0.096-0.69,0.454-0.69,0.881c0,0.5,0.404,0.907,0.902,0.907s0.902-0.407,0.902-0.907c0-0.427-0.295-0.785-0.69-0.881
			v-4.023c0.395-0.096,0.69-0.454,0.69-0.881C169.769,139.966,169.364,139.559,168.867,139.559z"/>
		<path style="fill:#FFFFFF;" d="M177.402,118.972C177.403,118.978,177.403,118.979,177.402,118.972L177.402,118.972z"/>
		<path style="fill:#FFFFFF;" d="M177.392,118.839c0.006,0.081,0.009,0.121,0.01,0.133
			C177.398,118.92,177.364,118.482,177.392,118.839z"/>
		<path style="fill:#FFFFFF;" d="M165.53,113.901c0.409,0,0.751-0.286,0.844-0.669h5.398l4.297,2.402l0.188,2.442
			c-0.372,0.122-0.629,0.488-0.598,0.898c0.037,0.481,0.456,0.841,0.933,0.804c0.478-0.037,0.836-0.459,0.799-0.939
			c-0.032-0.41-0.341-0.732-0.728-0.795l-0.205-2.662l-4.581-2.561h-5.504c-0.092-0.383-0.435-0.669-0.844-0.669
			c-0.479,0-0.869,0.392-0.869,0.874C164.661,113.509,165.051,113.901,165.53,113.901z"/>
		<path style="fill:#FFFFFF;" d="M145.421,117.093C145.404,117.105,145.4,117.108,145.421,117.093L145.421,117.093z"/>
		<path style="fill:#FFFFFF;" d="M145.43,117.087c-0.003,0.002-0.006,0.004-0.009,0.006
			C145.424,117.091,145.426,117.089,145.43,117.087z"/>
		<path style="fill:#FFFFFF;" d="M145.43,117.087c0.018-0.013,0.048-0.034,0.094-0.067c0.048-0.034,0.079-0.056,0.097-0.069
			C145.577,116.982,145.475,117.054,145.43,117.087z"/>
		<path style="fill:#FFFFFF;" d="M145.623,116.95C145.649,116.931,145.644,116.934,145.623,116.95L145.623,116.95z"/>
		<path style="fill:#FFFFFF;" d="M145.62,116.951c0.001-0.001,0.002-0.001,0.002-0.002
			C145.622,116.95,145.621,116.951,145.62,116.951z"/>
		<path style="fill:#FFFFFF;" d="M162.571,143.284c0,0.013,0,0.024,0,0.034C162.572,143.308,162.572,143.296,162.571,143.284z"/>
		<path style="fill:#FFFFFF;" d="M162.572,143.318c0,0.01,0,0.019,0,0.027C162.572,143.338,162.572,143.329,162.572,143.318z"/>
		<path style="fill:#FFFFFF;" d="M162.571,143.263c0,0.007,0,0.014,0,0.021C162.571,143.277,162.571,143.27,162.571,143.263z"/>
		<path style="fill:#FFFFFF;" d="M162.571,143.237c0,0.009,0,0.018,0,0.026C162.571,143.254,162.571,143.246,162.571,143.237z"/>
		<path style="fill:#FFFFFF;" d="M163.671,142.334l-0.137-9.341l-5.338-0.088l-3.977-3.663h-10.024l-2.532-1.631l-0.038-6.439
			l3.828-2.729c0.307,0.269,0.767,0.304,1.113,0.057c0.406-0.289,0.502-0.857,0.215-1.265c-0.287-0.408-0.851-0.505-1.257-0.216
			c-0.346,0.247-0.466,0.696-0.316,1.076l-4.008,2.857l0.041,6.892l2.83,1.823h9.983l3.974,3.66l5.089,0.083l0.131,8.928
			c-0.394,0.102-0.683,0.464-0.677,0.891c0.007,0.5,0.418,0.901,0.915,0.894c0.497-0.007,0.896-0.42,0.888-0.921
			C164.367,142.778,164.067,142.424,163.671,142.334z"/>
		<path style="fill:#FFFFFF;" d="M162.572,143.345c0,0.01,0,0.018,0,0.023C162.572,143.363,162.572,143.355,162.572,143.345z"/>
		<path style="fill:#FFFFFF;" d="M162.569,143.119c0-0.011,0-0.019,0-0.024C162.569,143.1,162.569,143.108,162.569,143.119z"/>
		<path style="fill:#FFFFFF;" d="M162.569,143.142c0-0.009,0-0.016,0-0.024C162.569,143.125,162.569,143.133,162.569,143.142z"/>
		<path style="fill:#FFFFFF;" d="M162.569,143.095C162.568,143.086,162.568,143.084,162.569,143.095L162.569,143.095z"/>
		<path style="fill:#FFFFFF;" d="M162.57,143.181c0-0.015,0-0.028,0-0.039C162.569,143.154,162.57,143.167,162.57,143.181z"/>
		<path style="fill:#FFFFFF;" d="M162.571,143.237c0-0.002,0-0.003,0-0.005c0-0.013,0-0.024-0.001-0.035
			C162.57,143.21,162.57,143.223,162.571,143.237z"/>
		<path style="fill:#FFFFFF;" d="M162.57,143.197c0-0.005,0-0.01,0-0.015C162.57,143.186,162.57,143.191,162.57,143.197z"/>
		<path style="fill:#FFFFFF;" d="M162.573,143.368C162.573,143.377,162.573,143.379,162.573,143.368L162.573,143.368z"/>
		<path style="fill:#FFFFFF;" d="M146.594,125.762C146.602,125.762,146.601,125.762,146.594,125.762L146.594,125.762z"/>
		<path style="fill:#FFFFFF;" d="M146.442,123.949c-0.497,0.004-0.898,0.415-0.894,0.915c0.004,0.5,0.412,0.904,0.909,0.9
			c-0.124,0.001-0.248,0.002,0,0c0.076-0.001,0.117-0.001,0.134-0.001c-0.022,0-0.077,0.001-0.134,0.001
			c0.424-0.004,0.777-0.303,0.87-0.702l8.795-0.074l2.983,3.349c-0.23,0.337-0.212,0.802,0.071,1.119
			c-0.017-0.019-0.034-0.038-0.048-0.054c0.013,0.015,0.029,0.032,0.048,0.054c0.008,0.009,0.014,0.016,0.021,0.023
			c-0.007-0.008-0.014-0.015-0.021-0.023c0.332,0.372,0.903,0.404,1.273,0.07c0.37-0.334,0.401-0.909,0.07-1.281
			c-0.283-0.318-0.74-0.386-1.098-0.192l-3.111-3.492l-8.986,0.075C147.224,124.239,146.866,123.945,146.442,123.949z"/>
		<path style="fill:#FFFFFF;" d="M146.59,125.762c0.001,0,0.003,0,0.004,0C146.593,125.762,146.592,125.762,146.59,125.762z"/>
		<path style="fill:#FFFFFF;" d="M159.196,129.48c0.009,0.01,0.017,0.019,0.025,0.028C159.214,129.5,159.205,129.49,159.196,129.48z
			"/>
		<path style="fill:#FFFFFF;" d="M159.221,129.508c0.028,0.031,0.042,0.048,0.047,0.053
			C159.262,129.554,159.244,129.534,159.221,129.508z"/>
		<path style="fill:#FFFFFF;" d="M159.106,129.379C159.076,129.345,159.065,129.333,159.106,129.379L159.106,129.379z"/>
		<path style="fill:#FFFFFF;" d="M159.269,129.561C159.271,129.564,159.271,129.564,159.269,129.561L159.269,129.561z"/>
		<path style="fill:#FFFFFF;" d="M159.127,129.402c-0.008-0.009-0.015-0.017-0.021-0.023
			C159.112,129.386,159.119,129.394,159.127,129.402z"/>
		<path style="fill:#FFFFFF;" d="M165.719,131.381c0-0.427-0.295-0.785-0.69-0.881v-3.748l-4.548-6.34h-5.997
			c-0.096-0.398-0.451-0.694-0.875-0.694c-0.497,0-0.902,0.407-0.902,0.907c0,0.5,0.404,0.907,0.902,0.907
			c0.424,0,0.78-0.297,0.875-0.694h5.78l4.341,6.052v3.61c-0.395,0.096-0.69,0.454-0.69,0.881c0,0.5,0.405,0.907,0.902,0.907
			C165.314,132.289,165.719,131.882,165.719,131.381z"/>
		<path style="fill:#FFFFFF;" d="M149.237,120.112c0.012-0.011,0.023-0.021,0.032-0.029
			C149.26,120.092,149.249,120.102,149.237,120.112z"/>
		<path style="fill:#FFFFFF;" d="M149.215,120.132c0.315-0.286,0.381-0.746,0.187-1.106l3.606-3.277l8.14,0.126l5.797,7.83
			c-0.26,0.315-0.284,0.779-0.03,1.121c-0.012-0.016-0.024-0.032-0.035-0.047c0.01,0.014,0.021,0.029,0.035,0.047
			c0.045,0.061,0.07,0.094,0.08,0.108c-0.013-0.017-0.046-0.063-0.08-0.108c0.297,0.401,0.863,0.484,1.262,0.185
			c0.399-0.299,0.481-0.868,0.184-1.27c-0.253-0.342-0.702-0.452-1.076-0.292l-5.922-7.998l-8.515-0.132l-3.73,3.389
			c-0.336-0.231-0.797-0.211-1.112,0.075c-0.369,0.335-0.398,0.91-0.065,1.281C148.275,120.438,148.846,120.467,149.215,120.132z"/>
		<path style="fill:#FFFFFF;" d="M149.27,120.083c0.013-0.011,0.024-0.022,0.032-0.03C149.294,120.06,149.283,120.07,149.27,120.083
			z"/>
		<path style="fill:#FFFFFF;" d="M149.152,120.189c-0.007,0.006-0.013,0.012-0.018,0.017
			C149.139,120.201,149.145,120.196,149.152,120.189z"/>
		<path style="fill:#FFFFFF;" d="M149.212,120.135c-0.015,0.013-0.029,0.026-0.042,0.038
			C149.182,120.162,149.195,120.15,149.212,120.135z"/>
		<path style="fill:#FFFFFF;" d="M149.17,120.173c-0.006,0.006-0.012,0.011-0.017,0.016
			C149.158,120.184,149.164,120.179,149.17,120.173z"/>
		<path style="fill:#FFFFFF;" d="M149.302,120.053C149.331,120.027,149.325,120.032,149.302,120.053L149.302,120.053z"/>
		<path style="fill:#FFFFFF;" d="M149.134,120.206C149.096,120.24,149.105,120.232,149.134,120.206L149.134,120.206z"/>
		<path style="fill:#FFFFFF;" d="M149.237,120.112c-0.007,0.006-0.014,0.013-0.022,0.02c-0.001,0.001-0.002,0.002-0.003,0.003
			C149.22,120.127,149.229,120.119,149.237,120.112z"/>
		<path style="fill:#FFFFFF;" d="M166.995,124.934C167.002,124.944,167.003,124.945,166.995,124.934L166.995,124.934z"/>
		<path style="fill:#FFFFFF;" d="M166.849,124.736c-0.006-0.008-0.01-0.014-0.013-0.018
			C166.838,124.722,166.843,124.729,166.849,124.736z"/>
		<path style="fill:#FFFFFF;" d="M166.835,124.718C166.827,124.708,166.828,124.709,166.835,124.718L166.835,124.718z"/>
		<path style="fill:#FFFFFF;" d="M166.88,124.779c-0.014-0.018-0.024-0.032-0.032-0.043
			C166.857,124.748,166.868,124.763,166.88,124.779z"/>
		<path style="fill:#FFFFFF;" d="M172.728,121.768l-1.448-1.197c0.177-0.368,0.089-0.825-0.239-1.096
			c-0.384-0.317-0.954-0.261-1.269,0.125c-0.316,0.386-0.26,0.959,0.124,1.277c-0.005-0.004-0.01-0.008-0.014-0.012
			c0.005,0.004,0.009,0.008,0.015,0.012c0.022,0.018,0.039,0.033,0.054,0.045c-0.017-0.014-0.035-0.029-0.054-0.045
			c0.328,0.271,0.79,0.269,1.114,0.022l1.292,1.068l-0.045,8.007l-2.983,1.669c-0.276-0.301-0.73-0.386-1.1-0.179
			c0.025-0.014,0.049-0.027,0.07-0.039c-0.018,0.01-0.041,0.023-0.07,0.039c-0.058,0.033-0.092,0.052-0.11,0.062
			c0.022-0.012,0.066-0.037,0.11-0.061c-0.434,0.243-0.591,0.797-0.35,1.234c0.242,0.437,0.792,0.595,1.226,0.352
			c0.371-0.207,0.538-0.641,0.43-1.035l3.199-1.79L172.728,121.768z"/>
		<path style="fill:#FFFFFF;" d="M169.865,120.852C169.789,120.788,169.734,120.743,169.865,120.852L169.865,120.852z"/>
		<path style="fill:#FFFFFF;" d="M169.951,120.923c0.016,0.013,0.029,0.024,0.039,0.032
			C169.981,120.948,169.968,120.937,169.951,120.923z"/>
		<path style="fill:#FFFFFF;" d="M169.99,120.955c0.004,0.003,0.006,0.005,0.009,0.007
			C169.997,120.96,169.994,120.958,169.99,120.955z"/>
		<path style="fill:#FFFFFF;" d="M170.006,120.968C170.008,120.97,170.008,120.969,170.006,120.968L170.006,120.968z"/>
		<path style="fill:#FFFFFF;" d="M169.882,120.866c-0.006-0.005-0.012-0.01-0.017-0.014
			C169.871,120.856,169.877,120.861,169.882,120.866z"/>
		<path style="fill:#FFFFFF;" d="M169.999,120.962c0.003,0.003,0.006,0.005,0.007,0.006
			C170.005,120.967,170.002,120.965,169.999,120.962z"/>
		<path style="fill:#FFFFFF;" d="M168.053,131.534C168.053,131.534,168.053,131.534,168.053,131.534
			C168.053,131.534,168.053,131.534,168.053,131.534z"/>
		<path style="fill:#FFFFFF;" d="M168.065,131.527c-0.005,0.003-0.009,0.005-0.012,0.007
			C168.056,131.532,168.06,131.53,168.065,131.527z"/>
		<path style="fill:#FFFFFF;" d="M168.298,131.397C168.301,131.395,168.301,131.395,168.298,131.397L168.298,131.397z"/>
		<path style="fill:#FFFFFF;" d="M168.053,131.534C168.049,131.536,168.049,131.536,168.053,131.534L168.053,131.534z"/>
		<path style="fill:#FFFFFF;" d="M168.245,131.426c0.012-0.007,0.022-0.012,0.03-0.017
			C168.266,131.415,168.256,131.42,168.245,131.426z"/>
		<path style="fill:#FFFFFF;" d="M168.275,131.41c0.005-0.003,0.009-0.005,0.013-0.007
			C168.284,131.405,168.28,131.407,168.275,131.41z"/>
		<path style="fill:#FFFFFF;" d="M168.288,131.403c0.005-0.003,0.009-0.005,0.011-0.006
			C168.296,131.398,168.293,131.4,168.288,131.403z"/>
		<path style="fill:#FFFFFF;" d="M151.323,114.664c0.002-0.001,0.004-0.002,0.005-0.003
			C151.327,114.661,151.325,114.662,151.323,114.664z"/>
		<path style="fill:#FFFFFF;" d="M151.089,114.807C151.084,114.81,151.083,114.81,151.089,114.807L151.089,114.807z"/>
		<path style="fill:#FFFFFF;" d="M151.328,114.66C151.33,114.659,151.33,114.659,151.328,114.66L151.328,114.66z"/>
		<path style="fill:#FFFFFF;" d="M151.207,114.734c0.362-0.221,0.514-0.661,0.39-1.051l2.842-1.737l4.877,0.153l2.409,1.316
			c-0.105,0.395,0.067,0.827,0.44,1.03c-0.001,0-0.001-0.001-0.002-0.001c0.001,0,0.001,0.001,0.002,0.001
			c0.003,0.002,0.005,0.003,0.008,0.005c-0.003-0.002-0.005-0.003-0.008-0.005c0.437,0.239,0.985,0.075,1.223-0.364
			c0.237-0.44,0.075-0.992-0.362-1.23c-0.373-0.204-0.826-0.114-1.098,0.19l-2.497-1.364l-5.103-0.16l-2.95,1.802
			c-0.287-0.29-0.744-0.358-1.106-0.136c-0.425,0.26-0.561,0.819-0.303,1.246C150.227,114.857,150.782,114.994,151.207,114.734z"/>
		<path style="fill:#FFFFFF;" d="M151.323,114.664c-0.014,0.008-0.049,0.03-0.116,0.071c-0.072,0.044-0.107,0.065-0.118,0.072
			C151.118,114.789,151.288,114.685,151.323,114.664z"/>
		<path style="fill:#FFFFFF;" d="M162.282,114.51c0.003,0.002,0.006,0.003,0.008,0.004
			C162.288,114.513,162.286,114.512,162.282,114.51z"/>
		<path style="fill:#FFFFFF;" d="M162.29,114.514C162.291,114.515,162.292,114.515,162.29,114.514L162.29,114.514z"/>
		<path style="fill:#FFFFFF;" d="M162.174,114.451c0.031,0.017,0.061,0.033,0.083,0.045
			C162.238,114.486,162.21,114.471,162.174,114.451z"/>
		<path style="fill:#FFFFFF;" d="M162.257,114.496c0.006,0.003,0.011,0.006,0.015,0.008
			C162.267,114.502,162.262,114.499,162.257,114.496z"/>
		<path style="fill:#FFFFFF;" d="M162.272,114.504c0.004,0.002,0.007,0.004,0.01,0.006
			C162.279,114.508,162.276,114.507,162.272,114.504z"/>
		<path style="fill:#FFFFFF;" d="M162.109,114.415c-0.005-0.003-0.009-0.005-0.014-0.007
			C162.099,114.41,162.104,114.413,162.109,114.415z"/>
		<path style="fill:#FFFFFF;" d="M162.095,114.408c-0.008-0.004-0.015-0.008-0.021-0.011
			C162.081,114.4,162.088,114.404,162.095,114.408z"/>
		<path style="fill:#FFFFFF;" d="M162.163,114.445c-0.021-0.012-0.039-0.021-0.054-0.03
			C162.126,114.425,162.144,114.435,162.163,114.445z"/>
		<path style="fill:#FFFFFF;" d="M162.045,114.38c-0.001-0.001-0.003-0.002-0.004-0.002
			C162.042,114.379,162.043,114.379,162.045,114.38z"/>
		<path style="fill:#FFFFFF;" d="M162.041,114.378C162.039,114.377,162.039,114.377,162.041,114.378L162.041,114.378z"/>
		<path style="fill:#FFFFFF;" d="M162.074,114.397c-0.014-0.007-0.024-0.013-0.03-0.016
			C162.05,114.383,162.059,114.388,162.074,114.397z"/>
		<path style="fill:#FFFFFF;" d="M175.487,129.312c0.497,0,0.902-0.407,0.902-0.907c0-0.427-0.295-0.785-0.69-0.881v-2.806
			c0.395-0.096,0.69-0.454,0.69-0.881c0-0.5-0.405-0.907-0.902-0.907c-0.497,0-0.902,0.407-0.902,0.907
			c0,0.427,0.295,0.785,0.69,0.881v2.806c-0.395,0.096-0.69,0.454-0.69,0.881C174.585,128.905,174.99,129.312,175.487,129.312z"/>
	</g>
	<g>
		<g>
			<g>
				<path style="fill:#FFFFFF;" d="M331.837,153.889c-0.138,0-0.249-0.112-0.249-0.251v-14.413c0-0.139,0.112-0.251,0.249-0.251
					c0.138,0,0.249,0.112,0.249,0.251v14.413C332.086,153.777,331.974,153.889,331.837,153.889z"/>
			</g>
			<g>
				<g>
					<path style="fill:#FFFFFF;" d="M326.45,158.999c-0.068,0-0.135-0.028-0.185-0.082c-0.093-0.103-0.085-0.261,0.017-0.354
						l5.345-4.886c0.099-0.09,0.25-0.086,0.344,0.008l4.855,4.886c0.097,0.098,0.097,0.257,0,0.355
						c-0.097,0.098-0.255,0.098-0.353,0l-4.687-4.717l-5.169,4.725C326.569,158.978,326.509,158.999,326.45,158.999z"/>
				</g>
			</g>
		</g>
		<g>
			<g>
				<path style="fill:#FFFFFF;" d="M344.332,179.314c-0.714,0-1.532-0.1-2.449-0.299c-1.481-0.322-2.936-0.854-3.732-1.212
					c-0.121-0.054-0.247-0.11-0.377-0.167c-1.631-0.719-3.864-1.703-4.028-3.756c-0.06-0.757-0.04-1.539-0.02-2.295
					c0.01-0.368,0.02-0.749,0.02-1.116v-17.211c0-1.01,0.631-2.096,1.468-2.526c0.536-0.276,1.083-0.244,1.54,0.088
					c0.385,0.28,0.762,0.552,1.131,0.819c3.23,2.336,5.781,4.181,7.579,6.322c1.95,2.323,2.82,4.785,2.82,7.984
					c0,1.155-0.001,2.229-0.001,3.304c-0.001,1.074-0.001,2.148-0.001,3.304c0,0.422,0.001,0.834,0.001,1.242
					c0.001,0.826,0.003,1.605-0.001,2.44c-0.006,1.268-1.008,2.283-1.997,2.727C345.759,179.196,345.107,179.314,344.332,179.314z"
					/>
			</g>
			<g>
				<path style="fill:#FFFFFF;" d="M319.342,179.314c-0.775,0-1.428-0.117-1.952-0.353c-0.99-0.444-1.991-1.46-1.997-2.727
					c-0.004-0.835-0.003-1.615-0.001-2.44c0.001-0.409,0.001-0.821,0.001-1.242c0-1.155-0.001-2.229-0.001-3.304
					c-0.001-1.074-0.001-2.149-0.001-3.304c0-3.199,0.87-5.661,2.82-7.984c1.798-2.142,4.349-3.987,7.579-6.322
					c0.369-0.267,0.746-0.539,1.131-0.819c0.458-0.333,1.005-0.364,1.541-0.088c0.837,0.431,1.468,1.517,1.468,2.526v17.211
					c0,0.367,0.01,0.748,0.02,1.116c0.02,0.756,0.04,1.538-0.02,2.295c-0.164,2.053-2.397,3.038-4.028,3.756
					c-0.13,0.057-0.257,0.113-0.377,0.167c-0.796,0.358-2.251,0.889-3.732,1.212C320.874,179.214,320.056,179.314,319.342,179.314z"
					/>
			</g>
		</g>
	</g>
	<g>
		<path style="fill:#FFFFFF;" d="M382.753,182.748v30.011c0,1.979,1.769,3.583,3.951,3.583l0,0c2.182,0,3.951-1.604,3.951-3.583
			v-30.011H382.753z M384.508,191.782h3.939c0.315,0,0.582,0.241,0.582,0.527c0,0.285-0.267,0.527-0.582,0.527h-3.939
			c-0.315,0-0.582-0.241-0.582-0.527C383.926,192.024,384.193,191.782,384.508,191.782z M388.784,197.632h-4.502
			c-0.75,0-0.748-1.055,0-1.055h4.502C389.534,196.578,389.533,197.632,388.784,197.632z"/>
		<path style="fill:#FFFFFF;" d="M391.667,182.748h-9.926c-0.564,0-1.003-0.443-0.943-0.951l0,0
			c0.051-0.437,0.458-0.769,0.943-0.769h9.926c0.564,0,1.003,0.443,0.943,0.951l0,0
			C392.559,182.417,392.152,182.748,391.667,182.748z"/>
	</g>
	<g>
		<path style="fill:#FFFFFF;" d="M270.008,121.456c0.392-0.218,0.788-0.439,1.19-0.674c0.063-0.037,0.174-0.118,0.314-0.224h-0.506
			c-0.209,0-0.402-0.11-0.51-0.29c-0.107-0.18-0.113-0.404-0.016-0.589l1.664-3.155l-1.182-0.372l-1.44,4.109
			c-0.026,0.074-0.066,0.143-0.119,0.201l-1.438,1.609c0.05,0.161,0.101,0.324,0.153,0.487
			C268.732,122.168,269.362,121.816,270.008,121.456z"/>
		<path style="fill:#FFFFFF;" d="M265.996,124.201c0.37-0.356,0.747-0.671,1.13-0.959c-0.042-0.054-0.077-0.114-0.099-0.183
			c-0.665-2.06-1.112-3.947-1.586-5.945c-0.263-1.108-0.533-2.248-0.851-3.457c-0.554,0.089-0.97,0.146-1.421,0.208
			c0.562,1.753,0.923,2.913,1.356,4.752c0.068,0.289,0.212,1.161,0.429,2.592c0.01,0.07,0.009,0.141-0.005,0.21l-0.599,2.962
			c-0.014,0.07-0.041,0.137-0.078,0.198c-0.542,0.875-1.451,2.566-1.89,3.594c-0.037,0.086-0.064,0.178-0.081,0.272
			C262.939,127.374,264.174,125.955,265.996,124.201z"/>
		<path style="fill:#FFFFFF;" d="M272.862,121.02c-0.515,0.405-0.855,0.673-1.066,0.797c-0.409,0.239-0.814,0.465-1.212,0.687
			c-1.346,0.75-2.617,1.458-3.765,2.563c-2.791,2.687-3.809,4.252-3.833,4.777c-0.273,6.006,0.68,8.409,2.785,11.24
			c2.601,3.498,5.922,6.305,9.604,8.117c1.285,0.633,2.663,1.058,4.093,1.264c1.942,0.281,3.4,0.437,4.237,0.455
			c0.428-0.486,1.419-2.696,2.157-4.626c0.023-0.494,0.05-1.021,0.079-1.575c0.22-4.227,0.52-10.015-0.329-14.82
			c-0.142-0.737-2.858-5.174-6.397-6.346l2.531,4.71c0.049,0.09,0.073,0.192,0.072,0.295l-0.09,5.499
			c-0.002,0.131-0.047,0.257-0.127,0.36l-1.438,1.843l0.577,3.484l1.402,2.059c0.186,0.273,0.117,0.646-0.155,0.832
			c-0.103,0.071-0.22,0.105-0.336,0.105c-0.19,0-0.376-0.091-0.492-0.26l-1.476-2.169c-0.049-0.072-0.082-0.154-0.096-0.24
			l-0.42-2.536l-2.931,3.755c-0.203,0.26-0.577,0.305-0.835,0.101c-0.259-0.204-0.303-0.581-0.1-0.841l5.24-6.715l0.085-5.141
			l-0.465-0.864l-2.29,2.023l-1.459,5.42c-0.053,0.196-0.201,0.352-0.394,0.414l-2.363,0.759c-0.06,0.019-0.121,0.028-0.181,0.028
			c-0.252,0-0.486-0.162-0.567-0.417c-0.1-0.315,0.073-0.652,0.386-0.753l2.054-0.659l1.421-5.28
			c0.031-0.114,0.094-0.216,0.182-0.294l2.629-2.323l-1.879-3.497c-0.072-0.133-0.09-0.288-0.053-0.434l0.75-2.93
			c0.038-0.15,0.133-0.279,0.264-0.36c0.936-0.582,1.917-1.103,2.915-1.551c1.977-0.886,3.511-1.409,5.015-1.704
			c0-0.427,0.012-0.83,0.023-1.223c0.01-0.337,0.02-0.662,0.023-0.998c-1.272,0.309-4.418,1.28-7.542,2.819
			C276.525,118.136,274.142,120.012,272.862,121.02z"/>
	</g>
	<g>
		<path style="fill:#FFFFFF;" d="M458.504,159.813c0.001,0,0.003-0.001,0.004-0.001c-0.015,0.002-0.03,0.003-0.044,0.004
			C458.473,159.817,458.487,159.817,458.504,159.813z"/>
		<path style="fill:#FFFFFF;" d="M458.542,159.811c-0.008-0.001-0.014-0.002-0.021-0.002c-0.004,0.001-0.009,0.002-0.013,0.003
			C458.52,159.811,458.532,159.81,458.542,159.811z"/>
		<path style="fill:#FFFFFF;" d="M458.172,159.783c-0.004-0.004-0.007-0.006-0.011-0.009c-0.001,0-0.002-0.001-0.003-0.001
			C458.163,159.776,458.168,159.779,458.172,159.783z"/>
		<path style="fill:#FFFFFF;" d="M458.859,159.648c-0.009,0.005-0.016,0.008-0.023,0.012c-0.009,0.008-0.018,0.014-0.026,0.02
			C458.827,159.668,458.842,159.656,458.859,159.648z"/>
		<path style="fill:#FFFFFF;" d="M458.124,159.762c0.011,0.004,0.023,0.007,0.034,0.011c-0.015-0.01-0.031-0.02-0.049-0.029
			C458.09,159.74,458.09,159.751,458.124,159.762z"/>
		<polygon style="fill:#FFFFFF;" points="457.852,158.753 457.861,158.747 457.863,158.744 		"/>
		<path style="fill:#FFFFFF;" d="M459.071,159.059c-0.001-0.006-0.003-0.011-0.005-0.017c0.001,0.017,0,0.034,0.002,0.052
			C459.073,159.099,459.078,159.086,459.071,159.059z"/>
		<path style="fill:#FFFFFF;" d="M457.875,158.726c-0.004,0.006-0.008,0.012-0.012,0.019c0.015-0.012,0.031-0.028,0.046-0.046
			C457.911,158.687,457.896,158.692,457.875,158.726z"/>
		<path style="fill:#FFFFFF;" d="M459.065,159.005c-0.001,0.01-0.002,0.018-0.003,0.026c0.001,0.004,0.002,0.008,0.003,0.012
			C459.065,159.029,459.064,159.016,459.065,159.005z"/>
		<polygon style="fill:#FFFFFF;" points="457.852,159.536 457.863,159.545 457.862,159.543 		"/>
		<path style="fill:#FFFFFF;" d="M457.795,159.43c-0.004-0.016-0.009-0.031-0.015-0.047
			C457.781,159.392,457.786,159.41,457.795,159.43z"/>
		<path style="fill:#FFFFFF;" d="M457.736,159.07c0,0.001,0,0.003,0,0.004c-0.003,0.053-0.003,0.106,0.001,0.159
			c0,0.001,0,0.002,0,0.003c0.004,0.02,0.008,0.041,0.013,0.061c0.007,0.029,0.019,0.057,0.03,0.086
			c-0.002-0.017,0.007-0.008,0.018,0.053c0,0,0,0,0,0c0.01,0.019,0.021,0.039,0.032,0.058c0.01,0.017,0.021,0.033,0.032,0.049
			c0.014,0.01,0.025,0.02,0.032,0.029c0.033,0.034,0.067,0.077,0.094,0.105c0.013,0.009,0.026,0.018,0.039,0.027
			c0.023,0.015,0.053,0.027,0.081,0.041c0.011,0.003,0.03,0.011,0.053,0.03c0.019,0.007,0.039,0.014,0.059,0.019
			c0.029,0.008,0.059,0.014,0.088,0.021c0.049,0.003,0.098,0.006,0.148,0.003c0.003,0,0.006-0.001,0.009-0.001
			c-0.022-0.002-0.009-0.014,0.057-0.008c0.049-0.011,0.096-0.026,0.144-0.041c0.019-0.011,0.038-0.02,0.057-0.03
			c0.029-0.016,0.057-0.037,0.085-0.057c-0.027,0.016-0.036,0.013,0.03-0.022c0.001-0.001,0.003-0.002,0.005-0.004
			c0.016-0.015,0.032-0.03,0.047-0.046c0.015-0.015,0.029-0.033,0.044-0.049c0.03-0.047,0.057-0.094,0.084-0.142
			c0.008-0.02,0.016-0.04,0.022-0.057c0.013-0.042,0.016-0.105,0.032-0.148c0.001-0.023,0.003-0.046,0.003-0.069
			c0-0.016-0.003-0.034-0.005-0.051c-0.004-0.005-0.009-0.025-0.006-0.063c-0.013-0.052-0.027-0.103-0.043-0.154
			c-0.015-0.027-0.028-0.055-0.044-0.081c-0.014-0.023-0.029-0.045-0.044-0.067c-0.038-0.039-0.077-0.077-0.115-0.116
			c-0.001-0.001-0.001-0.001-0.002-0.002c-0.003-0.002-0.006-0.004-0.009-0.006c-0.018-0.012-0.037-0.024-0.055-0.035
			c-0.027-0.016-0.058-0.029-0.085-0.046c-0.057-0.018-0.114-0.034-0.172-0.048c-0.024-0.001-0.048-0.003-0.073-0.004
			c-0.029,0-0.057,0-0.086,0.002c-0.025,0.006-0.095,0.018-0.115,0.024c-0.02,0.006-0.04,0.013-0.06,0.019
			c-0.038,0.032-0.103,0.055-0.148,0.081c-0.011,0.009-0.039,0.029-0.047,0.037c-0.018,0.016-0.037,0.041-0.056,0.064
			c-0.002,0.009-0.016,0.027-0.047,0.049c-0.011,0.016-0.021,0.032-0.031,0.048c-0.016,0.027-0.03,0.056-0.045,0.084
			c-0.016,0.049-0.032,0.097-0.043,0.147c-0.005,0.022-0.007,0.046-0.013,0.067C457.732,159.083,457.733,159.077,457.736,159.07
			C457.74,159.017,457.767,158.953,457.736,159.07z"/>
		<path style="fill:#FFFFFF;" d="M457.802,159.457c-0.001-0.008-0.003-0.014-0.004-0.02c-0.001-0.002-0.002-0.004-0.003-0.006
			C457.797,159.439,457.8,159.448,457.802,159.457z"/>
		<path style="fill:#FFFFFF;" d="M461.114,154.479c-1.347-5.192-4.972-5.57-7.312-5.881c-4.63-0.615-8.393,3.64-8.393,3.64
			s-3.762-4.256-8.393-3.64c-2.34,0.311-5.576-0.061-7.312,5.881c-0.97,3.32-0.587,6.535,0.56,9.508
			c0.069-0.029,0.144-0.046,0.219-0.046c0.708,0,1.416,0,2.124,0c0.014-0.037,0.028-0.075,0.042-0.112
			c0.484-1.286,0.968-2.571,1.452-3.856c0.096-0.254,0.289-0.42,0.565-0.433c0.246-0.011,0.511,0.191,0.565,0.433
			c0.08,0.361,0.16,0.723,0.24,1.084c0.349,1.572,0.697,3.145,1.046,4.717c0.052,0.235,0.104,0.47,0.156,0.705
			c0.22-0.794,0.439-1.587,0.659-2.381c0.22-0.795,0.44-1.59,0.66-2.385c0.159-0.574,0.96-0.547,1.13,0
			c0.045,0.144,0.089,0.288,0.134,0.432c0.156,0.503,0.312,1.006,0.469,1.509c0.427-1.008,0.854-2.016,1.281-3.024
			c0.074-0.174,0.324-0.306,0.506-0.292c0.648,0.048,1.297,0.097,1.945,0.145c0.256,0.019,0.497,0.167,0.565,0.433
			c0.059,0.234,0.119,0.468,0.179,0.702c0.259,1.015,0.517,2.03,0.776,3.045c0.047,0.182,0.093,0.365,0.139,0.547
			c0.575-0.971,1.151-1.941,1.726-2.912c0.224-0.378,0.789-0.386,1.012,0c0.085,0.148,0.171,0.296,0.256,0.445
			c0.376,0.652,0.752,1.305,1.128,1.957c0.37-1.381,0.74-2.761,1.109-4.142c0.253-0.944,0.506-1.888,0.759-2.832
			c0.086-0.319,0.413-0.482,0.721-0.412c0.422,0.097,0.844,0.193,1.266,0.29c0.271,0.062,0.398,0.317,0.43,0.568
			c0.052,0.413,0.104,0.825,0.156,1.237c0.127,1.012,0.255,2.023,0.382,3.035c0.075-0.989,0.15-1.978,0.225-2.967
			c0.026-0.344,0.251-0.558,0.586-0.59c0.583-0.056,1.166-0.111,1.75-0.167c0.069-0.284,0.202-0.554,0.393-0.788
			c0.464-0.566,1.313-0.794,1.995-0.536c0.734,0.278,1.225,0.953,1.235,1.748c-0.011,0.847-0.612,1.658-1.462,1.812
			c-0.772,0.14-1.555-0.178-1.964-0.867c-0.039-0.065-0.071-0.132-0.101-0.2c-0.434,0.042-0.868,0.083-1.301,0.124
			c-0.014,0.184-0.028,0.368-0.042,0.552c-0.119,1.569-0.238,3.138-0.358,4.708c-0.075,0.992-0.151,1.984-0.226,2.976
			c-0.025,0.33-0.248,0.574-0.586,0.589c-0.344,0.016-0.547-0.285-0.586-0.589c-0.052-0.412-0.104-0.825-0.156-1.237
			c-0.228-1.81-0.456-3.62-0.683-5.43c-0.123-0.976-0.245-1.952-0.368-2.928c-0.107-0.024-0.214-0.049-0.322-0.074
			c-0.043,0.162-0.087,0.325-0.13,0.487c-0.4,1.492-0.799,2.984-1.199,4.475c-0.253,0.944-0.506,1.888-0.759,2.832
			c-0.131,0.49-0.819,0.578-1.071,0.141c-0.085-0.148-0.171-0.296-0.256-0.445c-0.445-0.772-0.89-1.544-1.335-2.316
			c-0.646,1.089-1.291,2.178-1.937,3.268c-0.254,0.428-0.944,0.357-1.071-0.141c-0.06-0.234-0.119-0.468-0.179-0.702
			c-0.259-1.015-0.517-2.03-0.776-3.045c-0.128-0.504-0.257-1.007-0.385-1.511c-0.37-0.028-0.741-0.055-1.112-0.083
			c-0.033,0.079-0.067,0.158-0.1,0.236c-0.546,1.289-1.092,2.578-1.638,3.867c-0.09,0.213-0.376,0.309-0.584,0.281
			c-0.235-0.032-0.417-0.196-0.487-0.422c-0.045-0.144-0.089-0.288-0.134-0.432c-0.116-0.375-0.233-0.749-0.349-1.124
			c-0.251,0.908-0.502,1.816-0.754,2.724c-0.22,0.795-0.44,1.59-0.66,2.385c-0.15,0.542-1.001,0.58-1.13,0
			c-0.08-0.361-0.16-0.723-0.24-1.084c-0.349-1.572-0.697-3.145-1.046-4.717c-0.08-0.361-0.16-0.723-0.24-1.084
			c-0.315,0.838-0.631,1.676-0.946,2.513c-0.093,0.246-0.287,0.433-0.565,0.433c-0.756,0-1.511,0-2.267,0
			c4.091,8.93,14.667,15.403,14.667,15.403S464.76,168.537,461.114,154.479z"/>
		<path style="fill:#FFFFFF;" d="M457.884,159.577c0.025,0.038,0.032,0.022,0.01-0.005c-0.011-0.011-0.021-0.019-0.031-0.027
			C457.87,159.556,457.877,159.567,457.884,159.577z"/>
		<path style="fill:#29AAE1;" d="M458.465,159.816c0.014-0.001,0.029-0.003,0.044-0.004c0.004-0.001,0.009-0.002,0.013-0.003
			C458.456,159.802,458.442,159.814,458.465,159.816z"/>
		<path style="fill:#29AAE1;" d="M459.066,159.042c-0.001-0.004-0.002-0.008-0.003-0.012c-0.003,0.039,0.001,0.059,0.006,0.063
			C459.066,159.076,459.067,159.059,459.066,159.042z"/>
		<path style="fill:#29AAE1;" d="M457.909,158.698c-0.015,0.018-0.03,0.034-0.046,0.046c-0.001,0.001-0.001,0.002-0.002,0.003
			C457.893,158.725,457.907,158.707,457.909,158.698z"/>
		<path style="fill:#29AAE1;" d="M457.736,159.07C457.767,158.953,457.74,159.017,457.736,159.07L457.736,159.07z"/>
		<path style="fill:#FFFFFF;" d="M457.78,159.383c0.006,0.016,0.011,0.031,0.015,0.047c0.001,0.002,0.002,0.004,0.003,0.006
			C457.786,159.375,457.778,159.366,457.78,159.383z"/>
		<path style="fill:#29AAE1;" d="M457.863,159.545c0.01,0.008,0.021,0.016,0.031,0.027c-0.007-0.009-0.018-0.019-0.032-0.029
			C457.862,159.544,457.863,159.544,457.863,159.545z"/>
		<path style="fill:#29AAE1;" d="M458.158,159.773c0.001,0,0.002,0.001,0.003,0.001c-0.023-0.018-0.041-0.027-0.053-0.03
			C458.127,159.753,458.143,159.763,458.158,159.773z"/>
	</g>
	<g>
		<g>
			<path style="fill:#FFFFFF;" d="M89.419,237.871c-0.5,2.124,1.483,4.414,4.428,5.116l0,0c2.945,0.702,5.738-0.451,6.237-2.575
				l2.169-9.219l-10.666-2.541L89.419,237.871z"/>
			<path style="fill:#FFFFFF;" d="M104.763,220.523c0.5-2.124-1.483-4.414-4.428-5.116l0,0c-2.945-0.702-5.738,0.451-6.237,2.575
				l-2.169,9.219l10.666,2.541L104.763,220.523z"/>
		</g>
		<g>
			<path style="fill:#FFFFFF;" d="M117.433,243.273c3.966-1.127,6.38-5.08,5.695-9.078l-15.268,4.338
				C109.355,242.3,113.467,244.4,117.433,243.273z"/>
			<path style="fill:#FFFFFF;" d="M113.098,227.822c-3.966,1.127-6.38,5.08-5.695,9.078l15.268-4.338
				C121.176,228.794,117.064,226.695,113.098,227.822z"/>
		</g>
	</g>
	<path style="fill:#FFFFFF;" d="M178.651,181.631l-0.03-0.217l-0.217,0.018c-3.838,0.319-7.115-0.321-9.739-1.902
		c-3.181-1.916-4.775-4.237-4.79-4.261l-0.068-0.1l-2.094-0.025l-0.07,0.094c-0.017,0.022-1.719,2.265-4.987,4.026
		c-2.696,1.453-5.999,1.935-9.818,1.433l-0.216-0.028l-0.04,0.215c-0.202,1.08-0.341,6.048,0.513,11.938
		c1.312,9.057,3.988,13.464,5.995,15.559c2.809,3.162,8.567,6.401,8.624,6.434l0.098,0.055l0.103-0.044
		c3.432-1.455,6.438-3.488,8.927-6.035c2.111-2.003,4.992-6.276,6.731-15.26C178.705,187.689,178.802,182.72,178.651,181.631z
		 M164.935,202.211c-0.044,0.05-0.107,0.079-0.173,0.079h-4.387c-0.066,0-0.13-0.029-0.173-0.079
		c-0.044-0.05-0.064-0.117-0.055-0.183l1.226-9.178c-0.665-0.428-1.051-1.171-1.016-1.976c0.05-1.146,0.982-2.079,2.121-2.125
		c0.61-0.024,1.186,0.195,1.624,0.619c0.439,0.424,0.68,0.995,0.68,1.607c0,0.762-0.386,1.467-1.018,1.875l1.226,9.178
		C164.999,202.094,164.979,202.161,164.935,202.211z"/>
	<path style="fill:#FFFFFF;" d="M347.139,217.493c-0.271-0.581-0.744-1.033-1.201-1.468c-0.892-0.848-2.627-2.917-4.045-2.282
		c-0.345,0.155-0.617,0.434-0.92,0.661c-0.68,0.511-1.031,0.412-1.633,1.069c-0.153,0.167-0.331,0.313-0.54,0.403
		c-0.336,0.145-0.701,0.114-1.05,0.036c-0.342-0.077-0.675-0.188-1.023-0.236c-0.317-0.044-0.637-0.047-0.956-0.029
		c-0.537,0.03-1.09,0.086-1.621,0.17c-0.857,0.135-1.787,0.425-2.665,0.408c-0.582-0.011-1.111-0.324-1.676-0.462
		c-1.672-0.407-3.531,0.736-5.097,0.017c-0.185-0.085-0.362-0.195-0.56-0.241c-0.406-0.093-0.785,0.093-1.186,0.103
		c-0.366,0.009-0.745-0.067-1.112-0.099c-0.759-0.067-1.413-0.502-2.141-0.686c-0.776-0.195-1.691,0.121-2.434,0.326
		c-1.124,0.31-2.386,0.734-3.042,1.779c-0.338,0.537-0.828,1.959-0.516,2.545c0.093,0.174,0.204,0.342,0.246,0.534
		c0.042,0.192,0.01,0.394-0.041,0.584c-0.299,1.103,0.201,2.191,0.314,3.29c0.055,0.537-0.018,1.038-0.222,1.538
		c-0.183,0.449-0.418,0.884-0.479,1.372c-0.098,0.789,0.267,1.435,0.549,2.136c0.226,0.562,0.111,1.18,0.173,1.786
		c0.024,0.238,0.055,0.479,0.143,0.701c0.039,0.1,0.09,0.195,0.119,0.298c0.089,0.316-0.034,0.646-0.123,0.962
		c-0.595,2.088,0.135,4.299,2.347,4.895c1.374,0.37,2.89,0.07,3.912-0.955c0.53-0.532,0.941-1.245,0.985-2.009
		c0.047-0.823-0.402-1.438-0.991-1.956c-0.354-0.312-0.803-0.636-1.055-1.045c-0.228-0.37-0.288-0.806-0.554-1.168
		c-0.089-0.121-0.189-0.235-0.249-0.373c-0.231-0.53,0.211-1.089,0.385-1.64c0.395-1.247-0.606-2.668-0.083-3.866
		c0.117-0.267,0.302-0.498,0.443-0.753c0.375-0.678,0.416-1.533,0.106-2.244c-0.168-0.385-0.434-0.82-0.231-1.188
		c0.177-0.321,0.621-0.375,0.977-0.294c0.731,0.166,1.444,0.428,2.185,0.554c0.347,0.059,0.655,0.003,1.011,0.035
		c0.834,0.074,1.591,0.512,2.377,0.765c1.18,0.38,2.472,0.364,3.667,0.033c0.265-0.073,0.531-0.163,0.806-0.156
		c0.502,0.011,0.936,0.334,1.398,0.532c0.92,0.394,1.971,0.291,2.95,0.086c0.979-0.205,1.952-0.506,2.951-0.489
		c0.629,0.011,1.259,0.147,1.882,0.056c0.622-0.092,1.266-0.502,1.352-1.129c0.107-0.77,0.56-1.277,1.395-1.255
		c0.088,0.002,0.184,0.016,0.243,0.081c0.043,0.048,0.059,0.115,0.069,0.179c0.123,0.771-0.39,1.466-0.88,2.016
		c-0.385,0.432-0.811,0.839-1.093,1.351c-0.237,0.43-0.36,0.911-0.426,1.396c-0.223,1.654-0.073,4.912-1.226,6.211
		c-0.607,0.684-1.685,0.882-2.124,1.685c-0.588,1.075,0.331,2.007,0.439,3.043c0.137,1.321-1.026,0.577-1.708,1.568
		c-0.091,0.133-0.157,0.283-0.252,0.413c-0.405,0.558-1.199,0.608-1.886,0.606c-0.197-0.001-0.401-0.003-0.578-0.089
		c-0.22-0.107-0.36-0.325-0.521-0.509c-1.045-1.2-2.836-0.99-3.954,0.003c-0.789,0.701-1.238,1.768-1.168,2.826
		c0.081,1.216,0.736,2.281,1.103,3.418c0.351,1.086,0.302,2.213,0.241,3.338c-0.068,1.258-0.168,2.371,0.514,3.463
		c0.157,0.252,0.236,0.553,0.223,0.85c-0.002,0.052-0.007,0.107,0.014,0.155c0.259,0.578,0.787-0.089,0.893-0.262
		c0.273-0.448,0.146-1.231,0.513-1.768c0.154-0.225,0.337-0.431,0.46-0.674c0.413-0.817,0.118-1.799,0.406-2.654
		c0.372-1.103,0.236-2.26,0.555-3.307c0.408-1.336,1.867-0.589,2.974-0.682c1.016-0.085,2.048-0.477,2.698-1.268
		c0.287-0.35,0.504-0.777,0.887-1.016c0.236-0.148,0.516-0.21,0.761-0.343c0.775-0.422,1.006-1.41,1.169-2.282
		c0.282-1.512,1.434-2.164,1.832-3.568c0.354-1.248,0.301-2.604,0.921-3.772c0.597-1.125,1.588-2.019,1.859-3.307
		c0.148-0.702,0.124-1.424,0.223-2.132c0.09-0.638,0.313-1.242,0.575-1.827c0.466-1.042,1.102-2.074,1.247-3.228
		C347.436,218.522,347.367,217.982,347.139,217.493z"/>
	<g>
		<path style="fill:#FFFFFF;" d="M239.469,158.999c0.251,3.158-1.169,6.581-3.292,8.864c-0.603,0.649-1.228,1.278-1.872,1.886
			c-0.539,0.509-1.101,1.009-1.762,1.343c-1.176,0.594-2.443,0.324-3.558-0.295c-0.938-0.521-1.978-1.751-2.214-2.828
			c-0.314-1.434,1.199-2.298,1.063-3.64c-0.063-0.618-0.559-1.094-0.795-1.667c-0.779-1.888,1.378-4.19,0.35-5.952
			c-0.444-0.76-1.344-1.111-1.958-1.739c-1.103-1.127-1.077-3.079-0.16-4.365c1.902-2.666,6.806-2.562,9.189-0.609
			C236.921,152.013,239.217,155.827,239.469,158.999z"/>
		<path style="fill:#FFFFFF;" d="M199.548,158.999c-0.251,3.158,1.169,6.581,3.292,8.864c0.603,0.649,1.228,1.278,1.872,1.886
			c0.539,0.509,1.101,1.009,1.762,1.343c1.176,0.594,2.443,0.324,3.558-0.295c0.938-0.521,1.978-1.751,2.214-2.828
			c0.314-1.434-1.199-2.298-1.063-3.64c0.063-0.618,0.559-1.094,0.795-1.667c0.779-1.888-1.378-4.19-0.349-5.952
			c0.444-0.76,1.344-1.111,1.958-1.739c1.103-1.127,1.077-3.079,0.16-4.365c-1.902-2.666-6.806-2.562-9.189-0.609
			C202.096,152.013,199.8,155.827,199.548,158.999z"/>
		<g>
			<path style="fill:#FFFFFF;" d="M230.475,159.554c-2.109-0.253-4.508,0.57-5.91,2.181c-1.579,1.815-1.831,4.222-1.802,6.539
				c0.037,2.99,0.055,5.98,0.037,8.97c-0.007,1.199-0.015,2.399-0.046,3.598c-0.014,0.566,0.86,0.566,0.874,0
				c0.089-3.461,0.063-6.927,0.032-10.388c-0.022-2.508-0.335-5.281,1.081-7.502c0.778-1.22,2.019-2.001,3.403-2.339
				c0.744-0.182,1.55-0.272,2.33-0.179C231.032,160.501,231.027,159.62,230.475,159.554L230.475,159.554z"/>
		</g>
		<g>
			<path style="fill:#FFFFFF;" d="M210.783,160.461c1.936-0.232,4.103,0.486,5.372,2.018c1.546,1.867,1.481,4.376,1.456,6.663
				c-0.031,2.794-0.044,5.589-0.025,8.383c0.007,1.115,0.016,2.23,0.044,3.344c0.014,0.565,0.889,0.567,0.874,0
				c-0.095-3.725-0.062-7.456-0.025-11.182c0.026-2.53,0.163-5.241-1.379-7.406c-0.901-1.265-2.23-2.111-3.725-2.482
				c-0.826-0.206-1.74-0.32-2.592-0.218C210.232,159.648,210.225,160.528,210.783,160.461L210.783,160.461z"/>
		</g>
	</g>
	<g>
		<path style="fill:#FFFFFF;" d="M238.177,244.778c0.01-0.02,0.022-0.039,0.027-0.06c0.006-0.026,0.005-0.053,0.003-0.079
			c-0.001-0.007,0.002-0.015,0.001-0.022c-0.01-0.065-0.046-0.126-0.107-0.174c-0.198-0.144-0.397-0.29-0.596-0.436
			c-0.746-0.55-1.486-1.125-2.161-1.764c-0.381-0.36-0.742-0.74-1.069-1.151c-0.146-0.183-0.275-0.375-0.399-0.571
			c-0.01-0.015-0.021-0.029-0.031-0.044c-0.133-0.212-0.259-0.432-0.388-0.657c-0.095-0.165-0.193-0.333-0.293-0.5
			c-0.086-0.142-0.173-0.284-0.267-0.422c-0.366-0.543-0.878-1.039-1.523-1.473c-0.644-0.434-1.345-0.771-2.023-1.099
			c-0.571-0.276-1.162-0.562-1.706-0.898c-0.141-0.087-0.279-0.182-0.416-0.283c-0.299-0.221-0.592-0.478-0.889-0.779
			c-0.133-0.135-0.267-0.278-0.404-0.433c-0.53-0.601-1.118-1.22-1.934-1.609c-0.811-0.385-1.667-0.433-2.494-0.478l-0.371-0.022
			c-0.22-0.014-0.426-0.037-0.613-0.07c-0.353-0.184-0.708-0.366-1.064-0.544c-0.085-0.042-0.162-0.081-0.236-0.121
			c-0.075-0.041-0.15-0.084-0.22-0.131c-0.018-0.024-0.032-0.052-0.048-0.077c-0.025-0.039-0.051-0.076-0.074-0.118
			c-0.013-0.024-0.033-0.042-0.05-0.061c-0.03-0.034-0.066-0.061-0.107-0.079c-0.016-0.007-0.03-0.019-0.048-0.024
			c-0.012-0.003-0.024-0.006-0.036-0.007c-0.109-0.188-0.175-0.431-0.234-0.678c0.076-0.068,0.146-0.144,0.203-0.206l0.023-0.024
			l0.038-0.04c0.034-0.035,0.073-0.067,0.113-0.1c0.051-0.042,0.104-0.091,0.155-0.144c0.022-0.023,0.045-0.044,0.064-0.069
			c0.048-0.062,0.089-0.127,0.13-0.192c0.057-0.091,0.107-0.17,0.176-0.235c0.078-0.074,0.166-0.137,0.258-0.195
			c0.17-0.108,0.357-0.192,0.546-0.264c0.054-0.021,0.108-0.042,0.163-0.061c0.195-0.069,0.391-0.132,0.587-0.195
			c0.243-0.078,0.486-0.157,0.726-0.245c0.153-0.056,0.311-0.118,0.474-0.182c0.295-0.117,0.609-0.248,0.966-0.404
			c0.148-0.065,0.3-0.129,0.452-0.193c0.11-0.046,0.22-0.095,0.33-0.142c0.508-0.219,1.013-0.459,1.474-0.766
			c0.13-0.087,0.26-0.173,0.382-0.272c0.204-0.167,0.398-0.361,0.586-0.548c0.123-0.123,0.244-0.244,0.368-0.358
			c0.061-0.057,0.123-0.111,0.186-0.164c0.188-0.156,0.384-0.288,0.599-0.376c0.143-0.058,0.295-0.096,0.458-0.109
			c0.371-0.028,0.702,0.179,1.052,0.398c0.027,0.017,0.055,0.034,0.082,0.051c0.335,0.208,0.708,0.42,1.144,0.41
			c0.06-0.001,0.121-0.009,0.183-0.019c0.174-0.028,0.348-0.002,0.524-0.042c0.074-0.017,0.15-0.041,0.205-0.095
			c0.055-0.053,0.081-0.142,0.043-0.209c-0.035-0.062-0.115-0.086-0.186-0.081c-0.071,0.005-0.138,0.033-0.207,0.05
			c-0.255,0.064-0.435-0.053-0.661-0.133c-0.245-0.088-0.465-0.152-0.692-0.29c-0.054-0.033-0.107-0.065-0.161-0.099
			c-0.029-0.018-0.059-0.036-0.088-0.054c-0.188-0.118-0.384-0.228-0.594-0.311c-0.146-0.057-0.297-0.104-0.462-0.121
			c-0.312-0.031-0.598,0.026-0.856,0.132c-0.086,0.035-0.169,0.076-0.249,0.12c0.035-0.109,0.058-0.221,0.085-0.332
			c0.016-0.067,0.038-0.132,0.051-0.199c0.055-0.29,0.07-0.581,0.082-0.837c0.008-0.166,0.022-0.338,0.074-0.483
			c0.017-0.048,0.039-0.094,0.066-0.136c0.081-0.125,0.224-0.211,0.374-0.301c0.067-0.04,0.133-0.08,0.196-0.124
			c0.168-0.116,0.305-0.276,0.426-0.459c0.033-0.05,0.071-0.093,0.1-0.147c0.042-0.078,0.078-0.158,0.111-0.238
			c0.098-0.241,0.161-0.489,0.222-0.731c0.025-0.097,0.053-0.193,0.08-0.29c0.016-0.058,0.029-0.117,0.048-0.174
			c0.118-0.367,0.545-1.232,1.057-1.115c0.069,0.016,0.132,0.052,0.2,0.073c0.068,0.02,0.149,0.022,0.203-0.024
			c0.052-0.044,0.065-0.124,0.043-0.189c-0.021-0.065-0.071-0.117-0.127-0.157c-0.144-0.103-0.338-0.133-0.506-0.078
			c-0.267,0.087-0.474,0.098-0.702,0.301c-0.232,0.208-0.393,0.488-0.511,0.774c-0.003,0.009-0.008,0.015-0.012,0.024
			c-0.097,0.241-0.16,0.488-0.221,0.728c-0.04,0.155-0.081,0.303-0.127,0.447c-0.025,0.08-0.05,0.161-0.082,0.238
			c-0.072,0.175-0.159,0.309-0.255,0.423c-0.03,0.036-0.057,0.078-0.089,0.108c-0.082,0.076-0.183,0.137-0.291,0.202
			c-0.031,0.019-0.063,0.04-0.094,0.06c-0.09,0.056-0.181,0.116-0.265,0.194c-0.03,0.028-0.055,0.06-0.081,0.091
			c-0.062,0.072-0.117,0.15-0.159,0.241c-0.042,0.091-0.071,0.195-0.094,0.306c-0.01,0.048-0.021,0.093-0.028,0.145
			c-0.003,0.024-0.003,0.048-0.005,0.073c-0.011,0.113-0.019,0.226-0.025,0.34c-0.006,0.126-0.011,0.252-0.027,0.377
			c-0.061,0.496-0.222,0.99-0.465,1.432c-0.056,0.051-0.108,0.103-0.162,0.154c-0.065,0.062-0.132,0.124-0.195,0.186l-0.18,0.175
			c-0.572,0.546-1.264,0.886-1.999,1.216c-0.104,0.046-0.205,0.093-0.31,0.14l-0.126,0.056l-0.133,0.059
			c-0.108,0.048-0.221,0.095-0.332,0.142c-0.547,0.234-1.124,0.461-1.749,0.683c-0.251,0.089-0.509,0.177-0.776,0.265
			c-0.049,0.016-0.099,0.035-0.148,0.052c-0.37,0.128-0.745,0.286-1.06,0.54c-0.081,0.065-0.147,0.136-0.21,0.208
			c-0.038,0.043-0.075,0.086-0.111,0.129c-0.012,0.014-0.023,0.027-0.034,0.04c-0.067,0.081-0.134,0.158-0.208,0.22
			c-0.013,0.011-0.026,0.025-0.039,0.038c-0.011,0.012-0.024,0.026-0.036,0.04c-0.011,0.013-0.021,0.025-0.034,0.041
			c-0.022,0.026-0.053,0.045-0.082,0.065c-0.017,0.012-0.03,0.029-0.049,0.039c-0.075-0.208-0.205-0.459-0.452-0.602
			c-0.075-0.043-0.159-0.077-0.257-0.096c-0.199-0.188-0.477-0.26-0.779-0.201c-0.163,0.033-0.316,0.104-0.452,0.196
			c-0.165,0.112-0.305,0.257-0.397,0.427c-0.028-0.018-0.054-0.039-0.082-0.057c-0.046-0.031-0.093-0.062-0.136-0.096
			c-0.152-0.118-0.258-0.266-0.343-0.479c-0.096-0.239-0.18-0.482-0.264-0.726c-0.012-0.033-0.025-0.066-0.036-0.099
			c-0.058-0.168-0.116-0.335-0.177-0.502c-0.059-0.161-0.114-0.309-0.169-0.452c-0.074-0.194-0.145-0.376-0.214-0.546
			c-0.044-0.108-0.087-0.213-0.13-0.314c-0.078-0.183-0.157-0.351-0.236-0.518c-0.029-0.061-0.057-0.13-0.086-0.189
			c-0.02-0.04-0.04-0.075-0.06-0.115c-0.089-0.177-0.177-0.352-0.268-0.513c-0.093-0.165-0.189-0.318-0.286-0.468
			c-0.019-0.029-0.036-0.062-0.055-0.091c-0.117-0.176-0.236-0.343-0.36-0.501c-0.584-0.747-1.297-1.323-2.116-1.71
			c-0.246-0.116-0.5-0.221-0.755-0.325c-0.65-0.266-1.264-0.517-1.756-0.968c-0.119-0.109-0.228-0.227-0.329-0.353
			c-0.307-0.382-0.54-0.83-0.766-1.295c-0.003-0.145-0.012-0.29-0.019-0.436c-0.005-0.087-0.006-0.174-0.011-0.262
			c-0.027-0.451-0.058-0.962,0.042-1.434c0.072-0.337,0.23-0.64,0.398-0.961l0.122-0.235c0.157-0.312,0.301-0.679,0.298-1.078
			l0.077-0.09l-0.04-0.124c-0.13-0.405-0.088-0.869,0.114-1.242c0.064-0.118,0.143-0.225,0.222-0.332
			c0.052-0.071,0.104-0.142,0.152-0.215c0.163-0.246,0.247-0.479,0.265-0.734l0.005-0.088c0.004-0.082,0.008-0.165,0.028-0.245
			c0.018-0.073,0.052-0.145,0.099-0.217c0.099-0.15,0.245-0.282,0.374-0.398l0.041-0.037c0.143-0.129,0.292-0.263,0.419-0.425
			c0.128-0.163,0.236-0.356,0.343-0.605c0.057-0.134,0.108-0.272,0.158-0.41c0.103-0.28,0.2-0.544,0.351-0.777
			c0.193-0.297,0.499-0.533,0.909-0.702c0.35-0.144,0.734-0.233,1.105-0.319l0.159-0.037c0.535-0.125,0.97-0.263,1.372-0.434
			c0.916-0.389,1.761-0.969,2.443-1.677c0.212-0.221,0.37-0.537,0.545-0.791c0.048-0.069,0.095-0.165,0.041-0.23
			c-0.038-0.046-0.112-0.046-0.164-0.017c-0.052,0.029-0.089,0.079-0.125,0.126c-0.331,0.429-0.83,0.814-1.253,1.153
			c-0.443,0.354-0.927,0.657-1.44,0.897c-0.414,0.194-0.868,0.351-1.347,0.468l-0.321,0.075c-0.325,0.075-0.66,0.152-0.986,0.266
			c-0.508,0.177-0.887,0.415-1.16,0.729c-0.286,0.328-0.432,0.723-0.573,1.104l-0.052,0.14c-0.085,0.226-0.162,0.411-0.265,0.58
			c-0.086,0.142-0.203,0.279-0.369,0.432l-0.111,0.101c-0.273,0.245-0.582,0.522-0.665,0.945c-0.018,0.091-0.024,0.184-0.029,0.277
			c-0.002,0.045-0.005,0.09-0.009,0.135c-0.01,0.092-0.034,0.179-0.076,0.265c-0.062,0.13-0.151,0.251-0.245,0.379
			c-0.04,0.055-0.081,0.11-0.119,0.166c-0.159,0.23-0.267,0.483-0.328,0.745c-0.053-0.069-0.106-0.138-0.161-0.204l-0.118-0.14
			c-0.259-0.307-0.503-0.597-0.654-0.949c-0.029-0.068-0.051-0.143-0.075-0.217c-0.013-0.041-0.03-0.077-0.041-0.12l0.018-0.11
			l-0.055-0.046c-0.029-0.134-0.038-0.271-0.05-0.408c-0.006-0.067-0.021-0.132-0.024-0.199c-0.004-0.118,0.006-0.236,0.011-0.354
			c0.004-0.087,0.001-0.174,0.009-0.26c0.008-0.081,0.022-0.158,0.033-0.238c0.042-0.317,0.1-0.625,0.163-0.897
			c0.129-0.553,0.189-1.06,0.388-1.596c0.03-0.08,0.06-0.162,0.054-0.247c-0.003-0.044-0.027-0.097-0.071-0.094
			c-0.027,0.002-0.048,0.025-0.065,0.046c-0.371,0.469-0.524,0.878-0.673,1.445c-0.072,0.272-0.132,0.547-0.185,0.826
			c-0.027,0.139-0.06,0.277-0.079,0.418c-0.037-0.096-0.084-0.192-0.147-0.285c-0.04-0.059-0.095-0.112-0.145-0.167
			c-0.03-0.032-0.051-0.067-0.085-0.098c-0.012-0.011-0.03-0.021-0.042-0.032c-0.083-0.073-0.173-0.145-0.282-0.216
			c-0.081-0.052-0.165-0.099-0.249-0.147c-0.044-0.025-0.087-0.053-0.132-0.078c-0.078-0.044-0.156-0.088-0.232-0.134
			c-0.081-0.048-0.159-0.102-0.235-0.157c-0.014-0.01-0.03-0.019-0.053-0.037c-0.087-0.064-0.17-0.132-0.249-0.204
			c-0.061-0.055-0.118-0.115-0.175-0.175c-0.255-0.268-0.476-0.579-0.642-0.918c-0.201-0.41-0.324-0.861-0.355-1.303
			c-0.002-0.031-0.003-0.063-0.004-0.095c-0.001-0.024-0.003-0.048-0.003-0.073c-0.004-0.076-0.008-0.155-0.014-0.23
			c-0.127,0.014-0.279,0-0.372,0.104c-0.289,0.321,0.105,1.297,0.247,1.628c0.051,0.118,0.106,0.233,0.167,0.344
			c0.128,0.236,0.279,0.456,0.449,0.661c0.072,0.087,0.147,0.172,0.226,0.252c0.036,0.036,0.075,0.068,0.111,0.103
			c0.148,0.139,0.304,0.27,0.468,0.382c0.141,0.096,0.29,0.18,0.437,0.264l0.079,0.045l0.112,0.064
			c0.07,0.041,0.141,0.087,0.21,0.134c0.019,0.013,0.038,0.023,0.057,0.036c0.027,0.019,0.048,0.044,0.074,0.065
			c0.057,0.046,0.115,0.09,0.162,0.143c0.085,0.095,0.144,0.217,0.19,0.354c0.018,0.053,0.04,0.101,0.052,0.161
			c0.013,0.061,0.02,0.124,0.028,0.186c0.009,0.059,0.02,0.119,0.027,0.178c0.008,0.059,0.017,0.118,0.025,0.177
			c0.006,0.045,0.011,0.091,0.019,0.136c0.003,0.018,0.008,0.039,0.012,0.058c0.028,0.142,0.07,0.303,0.154,0.456
			c0.032,0.058,0.07,0.114,0.114,0.167c0.021,0.025,0.043,0.048,0.066,0.07c0.081,0.298,0.209,0.569,0.365,0.819
			c0.031,0.049,0.054,0.103,0.087,0.15c0.119,0.167,0.252,0.323,0.385,0.479c0.161,0.189,0.314,0.367,0.44,0.565
			c0.043,0.068,0.073,0.137,0.104,0.206c0.101,0.231,0.131,0.469,0.089,0.711c-0.012,0.073-0.025,0.145-0.05,0.219
			c-0.077,0.223-0.188,0.432-0.307,0.654c-0.089,0.168-0.178,0.335-0.253,0.509c-0.246,0.572-0.268,1.163-0.245,1.747
			c-0.096-0.171-0.19-0.324-0.286-0.467c-0.108-0.161-0.218-0.308-0.332-0.441c-0.234-0.272-0.517-0.535-0.84-0.781
			c-0.014-0.011-0.032-0.021-0.046-0.033c-0.295-0.22-0.706-0.39-0.914-0.68c-0.118-0.164-0.183-0.27-0.358-0.391
			c-0.156-0.109-0.335-0.2-0.432-0.374c-0.072-0.129-0.085-0.285-0.158-0.413c-0.076-0.133-0.209-0.221-0.316-0.33
			c-0.174-0.176-0.282-0.405-0.421-0.61c-0.18-0.266-0.463-0.459-0.629-0.728c-0.135-0.217-0.202-0.488-0.342-0.696
			c-0.126-0.185-0.28-0.267-0.296-0.521c-0.005-0.085-0.001-0.184-0.067-0.236c-0.082-0.064-0.206,0.003-0.256,0.094
			c-0.193,0.348,0.097,0.756,0.277,1.034c0.267,0.412,0.501,0.816,0.821,1.192c0.153,0.18,0.312,0.355,0.471,0.53
			c0.234,0.257,0.476,0.523,0.692,0.799c0.086,0.11,0.16,0.212,0.229,0.313l-0.051-0.026c-0.062-0.032-0.124-0.063-0.185-0.094
			c0,0-0.391-0.194-0.391-0.194c-1.181-0.583-2.402-1.105-3.243-2.169c-0.08,0.098-0.079,0.244-0.032,0.362
			c0.269,0.661,1.192,1.193,1.775,1.532c0.067,0.039,0.133,0.076,0.198,0.112c0.165,0.093,0.331,0.176,0.498,0.263
			c0.111,0.058,0.221,0.119,0.331,0.175l0.379,0.19c0.17,0.085,0.349,0.205,0.533,0.252c0.127,0.032,0.205,0.014,0.334,0.079
			c0.311,0.155,0.608,0.367,0.889,0.569c0.572,0.411,1.111,0.894,1.506,1.484c0.257,0.383,0.462,0.813,0.662,1.228l0.013,0.027
			l0.044,0.091l0,0.063c-0.002,0.435-0.062,0.86-0.136,1.299c-0.017,0.101-0.034,0.202-0.052,0.305
			c-0.021,0.119-0.039,0.241-0.059,0.362c-0.056,0.336-0.107,0.677-0.126,1.023c-0.009,0.157-0.012,0.379,0.01,0.63
			c0.056,0.634,0.275,1.455,0.99,1.895c0.201,0.122,0.415,0.191,0.627,0.2c0.085,0.004,0.167-0.005,0.248-0.018
			c0.159-0.026,0.308-0.078,0.443-0.136c0.024-0.01,0.05-0.02,0.073-0.031c0.044-0.02,0.091-0.039,0.136-0.059
			c0.393-0.172,0.812-0.336,1.256-0.45c0.052-0.013,0.102-0.029,0.154-0.041c0.254-0.057,0.512-0.1,0.768-0.127
			c0.037-0.004,0.073-0.006,0.11-0.009c0.174-0.017,0.344-0.026,0.509-0.021c0.043,0.001,0.087-0.003,0.13,0.001
			c0.217,0.019,0.376,0.105,0.514,0.279c0.118,0.147,0.222,0.309,0.326,0.468l0.1,0.154c0.113,0.171,0.233,0.359,0.351,0.554
			c0.097,0.161,0.193,0.327,0.282,0.5c0.059,0.115,0.117,0.231,0.169,0.349c0.042,0.094,0.077,0.193,0.115,0.291
			c0.093,0.241,0.18,0.487,0.26,0.729c0.053,0.161,0.107,0.322,0.164,0.482c0.251,0.707,0.682,1.694,1.574,2.166
			c-0.003,0.236,0.041,0.491,0.132,0.772c-0.023,0.04-0.033,0.084-0.052,0.125c-0.031,0.069-0.067,0.136-0.086,0.209
			c-0.015,0.056-0.021,0.111-0.025,0.165c-0.002,0.022-0.004,0.042-0.005,0.063c-0.002,0.052-0.002,0.104,0.001,0.15
			c-0.003,0.009-0.005,0.017-0.008,0.026c-0.007,0.019-0.014,0.038-0.019,0.057c-0.015,0.061-0.023,0.121-0.029,0.18
			c-0.001,0.007-0.001,0.014-0.002,0.021c-0.005,0.055-0.007,0.108-0.009,0.158c-0.001,0.017-0.001,0.034-0.002,0.05
			c0,0.008-0.001,0.017-0.001,0.025l-0.094,0.229l-0.056,0.138c-0.037,0.023-0.081,0.042-0.123,0.062
			c-0.095,0.045-0.195,0.087-0.304,0.127c-0.019,0.007-0.036,0.015-0.055,0.022c-0.083,0.031-0.167,0.062-0.244,0.097
			c-0.103,0.047-0.194,0.104-0.281,0.166c-0.111,0.08-0.214,0.176-0.31,0.289c-0.018,0.021-0.036,0.039-0.054,0.062
			c-0.078,0.082-0.146,0.173-0.193,0.253c-0.008,0.012-0.017,0.02-0.025,0.033c-0.018,0.019-0.038,0.033-0.057,0.049
			c-0.014,0.011-0.027,0.024-0.042,0.033c-0.021,0.013-0.043,0.021-0.064,0.031c-0.015,0.006-0.029,0.015-0.044,0.019
			c-0.023,0.007-0.047,0.009-0.071,0.012c-0.016,0.002-0.031,0.007-0.047,0.007c-0.025,0.001-0.052-0.002-0.079-0.004
			c-0.017-0.001-0.033-0.001-0.05-0.003c-0.028-0.004-0.058-0.011-0.087-0.018c-0.018-0.004-0.035-0.007-0.053-0.012
			c-0.029-0.008-0.061-0.019-0.092-0.029c-0.021-0.007-0.041-0.012-0.063-0.02c-0.028-0.01-0.059-0.023-0.089-0.035
			c-0.027-0.01-0.052-0.02-0.09-0.035c-0.056-0.023-0.113-0.047-0.174-0.073c-0.194-0.084-0.393-0.169-0.596-0.225
			c0,0,0.056-0.048,0.059-0.051l-0.113,0.028l-0.12-0.041c-0.138-0.047-0.276-0.041-0.41,0.017
			c-0.069,0.011-0.135,0.029-0.206,0.054c-0.066,0.025-0.13,0.057-0.191,0.095c-0.038,0.024-0.067,0.055-0.093,0.094
			c-0.022,0.037-0.035,0.078-0.038,0.121c-0.028,0.001-0.055-0.01-0.092-0.027c-0.021-0.01-0.034-0.021-0.05-0.032
			c-0.012-0.009-0.028-0.017-0.039-0.025c-0.075-0.055-0.178-0.13-0.353-0.139c-0.147-0.008-0.295,0.028-0.44,0.076
			c-0.233,0.078-0.46,0.2-0.66,0.315c-0.117,0.066-0.231,0.138-0.345,0.21c-0.035,0.022-0.07,0.042-0.105,0.064
			c-0.226,0.142-0.44,0.277-0.668,0.388c-0.214,0.105-0.442,0.176-0.677,0.24c-0.133,0.036-0.266,0.072-0.406,0.106
			c-0.368,0.089-0.746,0.185-1.104,0.35c-0.083,0.038-0.165,0.076-0.246,0.123c-0.084,0.049-0.164,0.102-0.241,0.159
			c-0.536,0.395-0.903,0.954-1.258,1.498l-0.056,0.085c-0.36,0.549-0.778,1.12-1.307,1.435c-0.479,0.285-1.011,0.207-1.512,0.458
			c-0.017,0.008-0.035,0.018-0.042,0.036c-0.015,0.036,0.023,0.07,0.056,0.09c0.301,0.182,0.589,0.313,0.923,0.165
			c0.278-0.123,0.58-0.21,0.847-0.363c0.546-0.314,0.923-0.804,1.289-1.305l0.143-0.211c0.537-0.796,1.045-1.547,1.973-1.842
			c0.212-0.067,0.428-0.118,0.645-0.169c0.097-0.023,0.195-0.048,0.293-0.073c0.203-0.051,0.406-0.106,0.607-0.183
			c0.059-0.023,0.112-0.055,0.169-0.081c0.295-0.132,0.571-0.293,0.834-0.456c0.144-0.09,0.288-0.179,0.436-0.263
			c0.057-0.032,0.119-0.067,0.185-0.102c0.085-0.045,0.176-0.088,0.269-0.126c0.095-0.038,0.191-0.072,0.284-0.087
			c0.055-0.009,0.094,0.005,0.158,0.045c0.017,0.011,0.035,0.022,0.057,0.037c0.101,0.069,0.227,0.155,0.409,0.162
			c0.246,0.009,0.419-0.152,0.558-0.281c0.029-0.027,0.058-0.054,0.088-0.079c0.089-0.013,0.185,0.004,0.283,0.032
			c0.127,0.035,0.258,0.092,0.39,0.16c0.052,0.027,0.104,0.053,0.155,0.08c0.027,0.014,0.052,0.025,0.079,0.039
			c0.102,0.054,0.204,0.108,0.299,0.147c0.081,0.033,0.157,0.054,0.234,0.076c0.138,0.04,0.272,0.068,0.396,0.072
			c-0.016,0.055-0.029,0.112-0.044,0.168c-0.025,0.093-0.05,0.185-0.074,0.28c-0.01,0.041-0.021,0.081-0.032,0.122
			c-0.116,0.455-0.247,0.911-0.547,1.234c-0.074,0.079-0.159,0.142-0.249,0.199c-0.198,0.125-0.427,0.21-0.668,0.296
			c-0.149,0.053-0.298,0.106-0.441,0.169c-0.539,0.237-0.996,0.585-1.257,1.109c-0.047,0.094-0.098,0.188-0.167,0.267
			c-0.124,0.141-0.302,0.229-0.416,0.378c-0.022,0.029-0.043,0.064-0.039,0.101c0.006,0.054,0.065,0.09,0.119,0.088
			c0.054-0.001,0.104-0.03,0.15-0.058c0.701-0.437,1.088-1.161,1.884-1.473c0.081-0.032,0.165-0.06,0.248-0.088
			c0.029-0.01,0.057-0.021,0.086-0.03c0.162-0.054,0.326-0.116,0.487-0.187c0.111-0.049,0.222-0.1,0.328-0.17
			c0.022-0.015,0.041-0.032,0.062-0.047c0.491-0.357,0.719-0.921,0.889-1.481c0.03-0.099,0.058-0.202,0.087-0.305
			c0.072-0.259,0.146-0.526,0.251-0.764c0.008-0.006,0.014-0.014,0.022-0.021c0.061-0.047,0.119-0.1,0.171-0.162
			c0.057-0.069,0.106-0.144,0.16-0.227c0.059-0.092,0.115-0.178,0.183-0.242c0.017-0.016,0.03-0.028,0.024-0.025
			c0.122-0.067,0.26-0.12,0.407-0.175c0.108-0.041,0.217-0.083,0.321-0.131c0.005-0.003,0.011-0.005,0.016-0.007
			c0.013-0.006,0.024-0.013,0.036-0.019c0.095-0.046,0.184-0.096,0.26-0.156c0.091-0.053,0.169-0.109,0.24-0.168
			c0.017-0.014,0.036-0.027,0.052-0.042c0.048-0.044,0.088-0.091,0.126-0.139c0.053-0.067,0.1-0.137,0.134-0.212
			c0.005-0.012,0.007-0.025,0.012-0.037c0.022-0.053,0.042-0.107,0.055-0.164c0.005-0.021,0.004-0.043,0.007-0.064
			c0.008-0.05,0.017-0.1,0.018-0.154c0.13,0.187,0.263,0.323,0.406,0.416c-0.016,0.038-0.025,0.076-0.037,0.114
			c-0.033,0.106-0.056,0.213-0.061,0.321c0,0.008,0.001,0.016,0.001,0.024c-0.011,0.434,0.176,0.88,0.35,1.291
			c0.055,0.129,0.109,0.257,0.156,0.382c0.095,0.25,0.165,0.489,0.164,0.71c0,0.111-0.019,0.217-0.06,0.318
			c-0.018,0.043-0.048,0.087-0.083,0.132c-0.021,0.027-0.042,0.054-0.064,0.082c-0.033,0.04-0.068,0.084-0.102,0.131
			c-0.09,0.125-0.169,0.276-0.163,0.472c0.011,0.317,0.24,0.527,0.408,0.681l0.071,0.066c0.361,0.345,0.287,0.71,0.016,1.168
			c-0.09,0.153-0.203,0.316-0.328,0.492c-0.122,0.172-0.24,0.338-0.329,0.494c-0.615,1.08-0.537,2.349-0.405,3.555
			c0.018,0.169,0.04,0.34,0.061,0.514c0.093,0.751,0.183,1.518,0.088,2.238c-0.043,0.327-0.121,0.645-0.261,0.946
			c-0.093,0.2-0.241,0.383-0.396,0.578c-0.111,0.138-0.227,0.283-0.326,0.441c-0.132,0.21-0.233,0.444-0.25,0.715
			c-0.004,0.068-0.003,0.138,0.004,0.211c0.049,0.496,0.29,0.915,0.523,1.319c0.181,0.314,0.352,0.611,0.43,0.931
			c0.018,0.075,0.066,0.135,0.128,0.171c0.029,0.017,0.062,0.029,0.103,0.033c0.032,0.004,0.065,0.004,0.102-0.006
			c0.034-0.009,0.065-0.023,0.091-0.042c0.014-0.01,0.024-0.025,0.035-0.038c0.011-0.012,0.024-0.022,0.032-0.035
			c0.015-0.025,0.025-0.054,0.035-0.094c0.003-0.018-0.001-0.038-0.002-0.057c-0.001-0.016,0.002-0.032-0.002-0.049
			c-0.095-0.404-0.288-0.755-0.474-1.093c-0.09-0.164-0.172-0.323-0.247-0.484c-0.045-0.096-0.09-0.192-0.124-0.292
			c-0.122-0.355-0.089-0.647,0.103-0.919c0.077-0.109,0.162-0.21,0.247-0.311c0.087-0.103,0.173-0.213,0.255-0.328
			c0.046-0.064,0.092-0.127,0.132-0.199c0.517-0.917,0.502-1.986,0.414-2.933c-0.012-0.135-0.027-0.268-0.041-0.397
			c0.154,0.204,0.323,0.397,0.506,0.574c0.259,0.251,0.548,0.461,0.836,0.664c0.263,0.186,0.536,0.379,0.754,0.609
			c0.215,0.227,0.362,0.481,0.425,0.735c0.022,0.09,0.028,0.177,0.027,0.261c-0.001,0.042,0.001,0.084-0.006,0.124
			c-0.017,0.115-0.063,0.236-0.142,0.381c-0.023,0.041-0.047,0.081-0.072,0.122c-0.014,0.024-0.028,0.049-0.043,0.073
			c-0.018,0.029-0.034,0.058-0.051,0.087c-0.029,0.048-0.058,0.096-0.085,0.145c-0.047,0.087-0.074,0.177-0.107,0.266
			c-0.02,0.054-0.05,0.106-0.064,0.16c-0.074,0.272-0.091,0.57-0.049,0.862c0.012,0.085,0.039,0.165,0.06,0.247
			c0.053,0.205,0.122,0.403,0.226,0.58c0.145,0.249,0.335,0.465,0.563,0.631c0.015,0.011,0.032,0.02,0.047,0.03
			c0.287,0.196,0.62,0.256,0.941,0.087c0.036-0.019,0.077-0.055,0.063-0.094c-0.316-0.087-0.626-0.269-0.873-0.485
			c-0.274-0.24-0.471-0.573-0.549-0.955c-0.023-0.113-0.034-0.228-0.036-0.352c0-0.117,0.011-0.232,0.034-0.343
			c0.024-0.115,0.061-0.226,0.11-0.329c0.018-0.039,0.042-0.074,0.063-0.111c0.035-0.062,0.068-0.125,0.104-0.186l0.042-0.07
			c0,0,0.025-0.042,0.025-0.042c0.08-0.136,0.168-0.299,0.219-0.482c0.046-0.166,0.059-0.342,0.038-0.522
			c-0.037-0.322-0.179-0.651-0.411-0.952c-0.285-0.369-0.657-0.63-1.016-0.883c-0.197-0.138-0.383-0.269-0.555-0.416
			c-0.263-0.224-0.499-0.487-0.706-0.772c-0.163-0.225-0.311-0.464-0.437-0.714c-0.003-0.005-0.005-0.011-0.007-0.016
			c-0.094-0.852-0.161-1.832,0.212-2.687c0.064-0.146,0.149-0.284,0.243-0.42c0.073-0.106,0.152-0.211,0.234-0.319
			c0.127-0.167,0.255-0.336,0.367-0.518c0.111-0.182,0.205-0.378,0.262-0.597c0.067-0.257,0.107-0.638-0.079-0.993
			c-0.046-0.089-0.12-0.168-0.197-0.245c-0.036-0.035-0.07-0.072-0.107-0.106c-0.124-0.117-0.293-0.276-0.263-0.359
			c0.017-0.045,0.068-0.101,0.118-0.156c0.053-0.058,0.103-0.118,0.151-0.19c0.025-0.042,0.041-0.089,0.061-0.133
			c0.041-0.089,0.071-0.183,0.092-0.281c0.01-0.049,0.025-0.096,0.031-0.148c0.027-0.288-0.029-0.57-0.104-0.819
			c-0.003-0.009-0.006-0.016-0.008-0.025c-0.022-0.072-0.046-0.142-0.069-0.205c-0.04-0.11-0.09-0.23-0.143-0.356
			c-0.024-0.058-0.049-0.117-0.074-0.176c-0.002-0.006-0.005-0.011-0.007-0.017c-0.004-0.01-0.008-0.02-0.012-0.029
			c-0.176-0.435-0.316-0.886-0.13-1.209c0.005-0.009,0.007-0.019,0.013-0.028c0.061-0.005,0.124-0.016,0.187-0.028
			c0.092-0.016,0.186-0.036,0.282-0.058c0.233-0.053,0.497-0.114,0.805-0.121c0.03-0.001,0.062,0.004,0.092,0.005
			c0.051,0.002,0.101,0.002,0.154,0.008c0.025,0.017,0.053,0.031,0.079,0.048c0.067,0.043,0.133,0.087,0.206,0.124
			c0.03,0.015,0.065,0.027,0.096,0.042c0.074,0.034,0.146,0.069,0.227,0.098c0.043,0.015,0.091,0.027,0.136,0.041
			c0.075,0.024,0.148,0.048,0.229,0.068c0.055,0.013,0.116,0.023,0.174,0.035c0.075,0.015,0.145,0.032,0.225,0.045
			c0,0,0.025,0.01,0.024,0.013l0.157,0.061l0.03,0.012l0.037-0.052c0.16,0.019,0.321,0.033,0.491,0.044
			c0.157,0.011,0.314,0.02,0.469,0.028c0.378,0.02,0.736,0.039,1.059,0.091c0.319,0.051,0.625,0.154,0.923,0.283
			c0.397,0.172,0.768,0.411,1.107,0.713c0.069,0.062,0.143,0.115,0.209,0.182c0.193,0.195,0.375,0.398,0.558,0.6
			c0.31,0.345,0.632,0.696,1.001,1.008c0.068,0.057,0.134,0.116,0.206,0.17c0.052,0.039,0.108,0.072,0.161,0.11
			c0.705,0.504,1.484,0.883,2.241,1.246c0.226,0.108,0.456,0.218,0.685,0.332c0.229,0.114,0.456,0.232,0.677,0.356
			c0.017,0.01,0.031,0.019,0.048,0.029c0.708,0.402,1.223,0.801,1.613,1.256c0.306,0.355,0.534,0.761,0.775,1.191
			c0.114,0.203,0.234,0.408,0.361,0.611c0.076,0.122,0.151,0.244,0.236,0.361c1.156,1.6,2.768,2.738,4.327,3.84
			c0.115,0.08,0.259,0.057,0.349-0.043c0.008-0.008,0.017-0.013,0.025-0.024C238.169,244.803,238.171,244.79,238.177,244.778z
			 M211.576,223.116c-0.098,0.003-0.194,0.01-0.285,0.016c-0.23,0.017-0.46,0.051-0.688,0.09c-0.034,0.006-0.069,0.007-0.104,0.014
			c-0.262,0.049-0.522,0.113-0.777,0.192c-0.265,0.081-0.527,0.179-0.779,0.29c-0.051,0.022-0.102,0.046-0.152,0.07
			c-0.009,0.004-0.018,0.008-0.028,0.013c-0.185,0.087-0.36,0.169-0.54,0.2c-0.397,0.067-0.702-0.199-0.86-0.382
			c-0.041-0.047-0.074-0.09-0.094-0.118c-0.223-0.317-0.356-0.739-0.385-1.222c-0.034-0.57,0.057-1.129,0.16-1.715
			c0.007-0.04,0.013-0.078,0.02-0.118c0.053-0.298,0.107-0.604,0.144-0.911l0.049,0.101l0,0l0,0l-0.001-0.031
			c0.059,0.1,0.121,0.199,0.187,0.296l0,0c0.286,0.423,0.632,0.771,1.025,1.033c0.276,0.184,0.573,0.332,0.868,0.464
			c0.138,0.062,0.276,0.121,0.412,0.178l0.173,0.071c0.372,0.153,0.756,0.311,1.107,0.507c0.087,0.048,0.167,0.109,0.25,0.163
			c0.277,0.179,0.544,0.38,0.789,0.619c0.1,0.097,0.197,0.199,0.293,0.307C212.113,223.123,211.836,223.107,211.576,223.116z"/>
	</g>
	<path style="fill:#FFFFFF;" d="M286.444,254.294c-0.119-1.47-0.343-3.133-1.539-3.985c-1.055-0.751-2.769-0.786-4.364-0.622
		c0.191-1.242,0.502-2.448,1.156-3.56c0.1-0.17,0.203-0.338,0.31-0.505c0.084-0.13,0.022-0.301-0.132-0.357
		c-0.865-0.319-1.798-0.472-2.723-0.446c-0.433,1.029-0.428,1.844-0.427,2.898c0.001,0.765-0.121,1.519-0.24,2.273
		c-0.143,0.026-0.28,0.051-0.41,0.075c-2.067,0.381-3.5,1.566-4.225,3.568c-0.916,2.528-2.042,5.339-4.505,6.388
		c-2.388,1.017-5.279-0.004-7.65,1.052c-1.047,0.466-1.622,1.249-2.204,2.195c-0.243,0.394-0.464,0.694-0.556,1.152
		c-0.129,0.642,0.016,0.801-0.342,1.353c-0.255,0.394-0.585,0.728-0.822,1.172c-0.107,0.2-1.231,2.118-0.9,2.281
		c0.247,0.121,0.835,0.564,1.107,0.427c0.195-0.099,0.446-1.086,0.575-1.316c0.378-0.677,1.335-2.133,2.149-2.323
		c1.05-0.246,2.193,1.145,2.848,1.769c2.493,2.374,5.993,3.574,9.424,3.462c3.431-0.112,6.771-1.486,9.455-3.639
		c1.025-0.822,1.969-1.766,2.659-2.887C286.958,261.686,286.732,257.85,286.444,254.294z"/>
</g>
<g id="Text_3_">
	<text transform="matrix(0.9937 0 0 1 145.4761 72.2217)" style="fill:#FFFFFF; font-family:'Muli-Light'; font-size:16px;">Development in medical technology</text>
	
		<text transform="matrix(0.9937 0 0 1 135.3594 51.7334)" style="fill:#FFFFFF; font-family:'LibreFranklin-Medium'; font-size:32px;">smart healthcare</text>
</g>
</svg>
